<svg width="2572.000000pt" height="700.000000pt" viewBox="0 0 2572.000000 700.000000" xmlns="http://www.w3.org/2000/svg">
  <g transform="translate(0.000000,700.000000) scale(0.100000,-0.100000)" fill="#ffffff" stroke="none">
    <path d="M0 3500 l0 -3500 12860 0 12860 0 0 3500 0 3500 -12860 0 -12860 0 0
-3500z m1089 2811 c24 -17 143 -85 256 -146 28 -15 57 -33 65 -40 8 -7 49 -31
90 -53 41 -22 113 -63 160 -91 47 -27 119 -69 160 -92 41 -23 138 -79 215
-124 77 -45 172 -99 210 -120 39 -21 88 -50 110 -64 22 -14 49 -31 60 -37 197
-110 284 -160 305 -174 14 -10 75 -45 135 -78 61 -34 133 -75 160 -91 71 -44
277 -161 282 -161 3 0 28 -15 56 -34 29 -19 93 -56 142 -84 50 -27 117 -66
150 -85 33 -20 114 -66 180 -103 66 -37 159 -90 206 -119 47 -29 121 -72 165
-95 43 -24 98 -56 122 -71 24 -16 45 -29 47 -29 3 0 42 -22 87 -48 46 -27 114
-66 153 -87 38 -21 74 -43 80 -47 5 -5 60 -36 120 -70 61 -33 120 -67 133 -75
l22 -13 0 -1169 0 -1168 -128 -73 c-70 -40 -176 -101 -237 -135 -60 -34 -132
-76 -160 -93 -27 -17 -108 -63 -180 -103 -71 -40 -152 -87 -180 -104 -27 -18
-97 -58 -155 -90 -58 -32 -132 -75 -165 -95 -53 -33 -158 -93 -280 -160 -22
-12 -51 -30 -65 -40 -14 -9 -54 -33 -90 -52 -36 -20 -105 -59 -155 -88 -49
-29 -120 -70 -156 -91 -36 -22 -69 -39 -73 -39 -9 0 -143 74 -216 119 -25 15
-74 43 -110 63 -36 20 -87 49 -115 66 -27 17 -108 63 -180 103 -71 40 -152 87
-180 105 -27 17 -113 67 -190 109 -77 43 -151 86 -165 95 -24 16 -145 86 -255
145 -27 15 -57 33 -65 40 -8 7 -86 52 -172 101 -150 85 -313 177 -351 200
l-18 10 48 31 c26 17 115 68 196 114 283 161 462 264 504 292 24 15 45 27 47
27 2 0 43 23 91 50 48 28 89 50 92 50 3 0 24 13 48 29 24 16 114 69 202 117
87 49 160 91 163 95 3 3 77 46 165 95 88 48 162 91 165 95 4 5 58 35 252 143
21 12 38 26 38 32 0 6 -8 18 -17 26 -15 13 -153 93 -284 165 -19 10 -52 30
-74 44 -22 14 -67 40 -100 58 -72 40 -360 206 -465 269 -41 24 -95 56 -120 70
-25 13 -71 40 -103 58 -32 19 -60 34 -63 34 -3 0 -29 15 -57 34 -29 18 -80 48
-112 67 -33 18 -103 58 -157 89 -53 30 -161 92 -240 137 -78 44 -164 94 -190
110 l-48 28 0 1162 0 1162 81 -45 c45 -25 93 -53 108 -63z m15792 -1731 c228
-18 448 -59 604 -112 33 -12 119 -50 190 -87 l130 -65 106 -106 107 -105 56
-116 c31 -64 65 -151 76 -193 10 -42 24 -124 31 -183 l12 -108 -7 -115 c-7
-120 -35 -279 -60 -333 -8 -18 -28 -63 -45 -100 -17 -38 -50 -97 -75 -131 -54
-76 -168 -185 -233 -222 -26 -16 -63 -38 -81 -51 -45 -30 -222 -97 -324 -124
-87 -22 -262 -56 -363 -70 -33 -5 -177 -11 -320 -15 l-260 -7 -140 12 c-273
23 -590 98 -750 178 -92 46 -213 131 -272 190 -70 70 -149 185 -186 271 -100
232 -115 589 -36 856 28 96 106 237 176 321 32 38 90 93 128 122 92 70 259
154 382 192 167 52 386 89 613 104 113 8 419 6 541 -3z m2299 -1 l50 -11 59
-39 c32 -21 94 -72 137 -113 43 -40 95 -86 114 -102 19 -15 69 -60 111 -98 41
-39 129 -118 194 -176 65 -58 144 -128 174 -156 31 -28 128 -115 216 -194 88
-78 200 -179 249 -223 49 -45 105 -94 125 -110 20 -16 46 -39 59 -53 13 -13
29 -24 37 -24 l15 0 0 640 0 640 305 0 305 0 0 -927 0 -928 -15 -68 c-8 -38
-24 -88 -36 -112 -28 -57 -90 -116 -157 -151 l-54 -27 -74 -5 -73 -5 -48 12
c-26 7 -70 29 -98 48 -50 36 -176 143 -205 175 -8 9 -55 51 -105 94 -49 42
-94 83 -100 90 -5 6 -37 35 -70 62 -33 28 -80 70 -105 93 -25 24 -60 56 -79
71 -18 15 -72 63 -120 106 -148 136 -534 482 -587 528 -28 24 -56 44 -63 44
l-11 0 0 -640 0 -640 -300 0 -301 0 3 958 3 957 30 75 30 75 40 40 c41 42 113
82 169 96 47 11 119 10 176 -2z m-11660 -1109 l0 -1090 -335 0 -335 0 0 1090
0 1090 335 0 335 0 0 -1090z m1290 1071 c5 -11 16 -26 23 -33 8 -8 39 -52 70
-98 30 -47 108 -161 172 -255 64 -93 154 -226 200 -295 46 -69 132 -195 190
-280 59 -85 140 -206 182 -269 41 -63 81 -121 89 -128 7 -8 21 -27 31 -43 9
-17 24 -30 33 -30 l15 0 125 177 c69 97 133 190 143 206 10 16 25 37 34 45 8
8 45 61 83 117 38 56 75 108 82 116 8 8 49 65 91 127 43 63 82 119 88 125 6 7
41 57 79 112 37 55 79 114 92 130 14 17 60 81 102 144 43 62 85 122 94 132
l16 19 383 0 c211 0 383 -2 383 -5 0 -6 -79 -122 -95 -141 -5 -6 -32 -43 -60
-83 -27 -40 -75 -108 -106 -150 -46 -64 -150 -210 -209 -295 -8 -12 -51 -72
-95 -134 -44 -63 -104 -148 -133 -190 -30 -42 -78 -111 -108 -152 -107 -147
-191 -266 -305 -430 -25 -36 -73 -103 -106 -150 -34 -47 -90 -125 -125 -174
-34 -49 -83 -112 -108 -139 -50 -55 -129 -112 -205 -148 l-50 -24 -120 0 -120
0 -70 35 -70 35 -72 68 -72 68 -87 127 c-47 70 -124 181 -170 247 -46 66 -122
176 -170 245 -47 69 -128 186 -180 260 -52 74 -135 194 -184 265 -49 72 -132
191 -184 265 -52 74 -133 191 -180 260 -47 69 -120 173 -160 233 l-75 107 404
0 404 0 11 -19z m5778 1 c-7 -11 -26 -34 -41 -53 -16 -19 -96 -122 -177 -229
-82 -107 -161 -210 -176 -227 l-27 -33 -714 0 -713 0 0 -140 0 -140 865 -2
865 -3 -55 -70 c-30 -38 -89 -115 -131 -170 -43 -55 -81 -102 -85 -105 -4 -3
-28 -33 -53 -67 l-46 -63 -680 0 -680 0 0 -155 0 -155 936 0 936 0 -34 -41
c-37 -45 -153 -195 -272 -351 -43 -56 -90 -115 -104 -131 l-26 -27 -1048 0
-1048 0 0 1090 0 1090 1261 0 1260 0 -13 -18z m8924 8 c249 -16 433 -63 619
-156 173 -88 289 -182 390 -317 33 -45 76 -111 94 -147 48 -96 82 -214 96
-335 l13 -107 -12 -109 c-22 -196 -86 -353 -209 -514 l-69 -90 -81 -70 c-148
-127 -339 -225 -532 -275 -45 -11 -128 -27 -184 -35 l-102 -15 -797 0 -798 0
0 675 0 675 335 0 335 0 0 -400 0 -400 449 0 449 0 74 14 c104 20 163 42 241
89 l69 40 49 61 c27 34 64 90 82 126 l32 65 0 130 0 130 -42 85 -41 85 -60 55
c-33 30 -66 60 -75 67 -31 25 -155 81 -217 99 l-65 18 -797 4 c-439 1 -798 5
-798 8 0 7 40 63 85 119 39 47 154 200 274 362 l54 73 496 0 c273 0 562 -5
643 -10z m-16504 -2632 l12 -12 0 -376 0 -376 -12 -12 -12 -12 -61 0 -61 0
-12 12 -12 12 0 376 0 376 12 12 12 12 61 0 61 0 12 -12z m561 6 c36 -7 78
-47 126 -119 18 -27 42 -59 53 -71 10 -11 52 -65 93 -120 40 -54 94 -125 119
-156 25 -31 63 -82 85 -112 l40 -55 23 -1 22 0 0 314 0 314 16 6 c20 8 108 8
128 0 l16 -6 -1 -352 c-1 -193 -4 -362 -8 -376 l-7 -25 -34 -17 -35 -18 -60 0
c-33 0 -77 5 -97 10 l-37 11 -35 42 c-19 23 -69 87 -110 142 -42 55 -83 109
-92 120 -9 11 -48 63 -87 115 -39 52 -73 97 -76 100 -3 3 -23 26 -44 53 l-38
47 -20 0 -19 0 0 -309 0 -309 -14 -11 -14 -12 -64 3 -63 3 -3 364 -2 364 15
24 c9 13 26 28 38 33 26 10 141 13 186 4z m1283 -4 l37 -11 65 -87 c110 -147
185 -245 226 -296 22 -26 70 -90 107 -142 l68 -94 27 0 28 0 2 318 3 317 70 0
70 0 3 -371 2 -370 -25 -24 -24 -23 -73 -5 -73 -4 -42 11 -42 12 -106 137
c-58 75 -133 171 -165 212 -32 42 -74 97 -92 122 -18 25 -51 68 -73 96 l-40
51 -22 0 -23 1 0 -308 0 -308 -12 -12 -12 -12 -52 0 c-29 0 -59 3 -68 6 l-16
6 0 363 0 362 20 26 c11 14 30 28 43 30 44 9 153 7 189 -3z m1771 0 c82 -12
133 -37 175 -84 l30 -35 12 -53 12 -53 -4 -195 -3 -195 -22 -40 c-43 -80 -97
-111 -221 -127 l-87 -10 -220 5 -220 5 -46 15 c-26 8 -63 26 -82 41 l-35 27
-23 52 -24 52 0 200 0 200 13 43 13 43 40 39 c43 41 81 58 163 70 76 11 451
11 529 0z m601 -12 c8 -13 36 -63 63 -113 26 -49 66 -123 88 -163 22 -40 74
-134 115 -210 l75 -137 20 0 20 0 57 105 c31 58 75 141 98 185 89 168 174 321
188 338 l15 17 79 0 c43 0 78 -2 78 -5 0 -9 -62 -129 -80 -155 -9 -14 -48 -83
-85 -155 -37 -71 -73 -137 -80 -145 -6 -8 -28 -46 -48 -85 -74 -146 -113 -209
-140 -229 l-28 -21 -73 0 -73 1 -24 16 c-13 8 -49 59 -79 113 -30 54 -67 118
-81 144 -14 25 -52 96 -84 156 -32 61 -62 112 -66 115 -7 6 -129 235 -129 244
0 3 36 6 80 6 l80 0 14 -22z m1479 8 c18 -7 45 -27 59 -44 14 -17 61 -96 103
-174 42 -79 117 -215 166 -303 49 -88 100 -181 114 -208 l26 -47 -14 -6 c-8
-3 -45 -4 -83 -2 l-68 3 -46 80 -46 80 -280 3 -281 2 -28 -57 c-15 -32 -36
-70 -47 -85 l-19 -28 -74 0 c-41 0 -76 4 -79 9 -6 9 24 70 144 286 42 77 112
205 155 284 44 80 92 159 107 177 16 18 39 35 51 37 48 9 109 6 140 -7z m1455
-63 l3 -73 -195 0 -196 0 -2 -322 -3 -323 -54 -3 c-30 -2 -65 -1 -78 3 l-23 5
0 320 0 320 -192 2 -193 3 -3 64 -3 64 13 8 13 9 455 -3 455 -2 3 -72z m422
58 l10 -20 0 -361 0 -361 -10 -20 -11 -19 -62 0 -63 0 -12 12 -12 12 0 376 0
376 12 12 12 12 63 0 62 0 11 -19z m1065 9 l69 -11 51 -28 50 -28 24 -46 23
-46 11 -110 11 -111 -11 -120 -10 -120 -24 -46 -24 -47 -51 -29 -51 -28 -89
-11 -89 -11 -220 5 -220 5 -44 13 -45 12 -47 46 -47 46 -14 45 -13 45 0 185 0
185 13 43 c16 51 69 114 117 136 19 9 60 20 92 25 83 12 455 12 538 1z m776 0
l35 -10 47 -57 c25 -32 116 -150 201 -263 86 -113 168 -220 183 -239 16 -18
32 -40 36 -47 4 -8 19 -14 32 -14 l25 0 2 318 3 317 63 3 64 3 14 -12 14 -11
-1 -342 0 -341 -12 -35 -12 -35 -40 -13 -40 -14 -75 5 c-41 3 -83 9 -93 13
-11 4 -50 48 -87 98 -38 50 -105 138 -149 196 -45 58 -119 156 -166 218 l-85
112 -25 0 -25 0 0 -314 0 -314 -16 -6 c-9 -3 -37 -6 -64 -6 -27 0 -55 3 -64 6
l-16 6 0 354 0 353 12 27 c7 15 26 33 43 40 36 16 145 18 196 4z m2170 0 c58
-11 91 -31 122 -72 l20 -26 4 -69 5 -68 -12 -44 c-6 -24 -22 -54 -36 -68 -13
-13 -24 -27 -24 -32 0 -4 11 -18 24 -30 14 -13 30 -36 36 -52 l12 -29 -4 -100
-4 -99 -20 -28 c-12 -16 -38 -37 -60 -48 l-39 -20 -372 -3 -372 -3 -20 11 -21
11 0 377 0 378 12 12 12 12 342 0 341 0 54 -10z m1274 -65 l0 -70 -307 -5
-308 -5 -30 -31 -31 -30 -6 -57 -6 -57 342 0 342 0 -3 -62 -3 -63 -339 -3
-339 -2 6 -62 5 -61 31 -31 31 -31 308 -5 307 -5 3 -64 3 -64 -13 -8 c-18 -12
-506 -11 -595 1 -121 16 -178 57 -220 160 l-18 45 0 190 1 190 23 50 c12 28
32 61 44 73 32 35 90 62 155 71 31 5 183 8 337 7 l280 -1 0 -70z m418 51 c12
-13 40 -49 62 -81 22 -31 58 -80 80 -109 23 -28 67 -88 100 -133 54 -76 78
-97 87 -74 2 4 15 23 30 42 15 19 59 79 99 134 40 55 76 102 79 105 4 3 26 32
51 65 24 33 48 63 54 67 5 4 43 8 83 8 l72 0 0 -10 c0 -11 -49 -77 -195 -265
-47 -60 -115 -148 -150 -195 l-64 -85 -3 -120 -3 -120 -54 -3 c-30 -2 -65 -1
-78 3 l-23 5 0 123 0 122 -71 90 c-39 50 -81 106 -94 125 -13 19 -31 44 -42
55 -22 23 -203 265 -203 271 0 2 36 4 80 4 l81 0 22 -24z m1816 0 c65 -24 103
-57 131 -112 l25 -49 0 -215 0 -215 -23 -45 c-13 -25 -33 -55 -45 -67 -11 -13
-45 -33 -76 -45 l-56 -23 -290 1 -290 0 -44 17 c-66 26 -106 60 -132 114 l-24
48 0 215 0 215 21 46 c22 48 67 89 119 109 59 24 134 29 385 26 l255 -3 44
-17z m747 -7 c14 -13 42 -46 62 -74 20 -27 39 -52 42 -55 3 -3 35 -43 70 -90
36 -47 75 -99 88 -115 12 -17 55 -73 94 -125 91 -122 118 -150 140 -150 l18 0
0 309 0 309 14 11 14 12 64 -3 63 -3 3 -363 2 -363 -11 -20 c-6 -12 -26 -27
-44 -35 l-34 -14 -63 1 c-35 0 -79 5 -98 12 l-34 12 -43 55 c-24 30 -82 107
-130 170 -48 63 -92 120 -98 126 -5 6 -26 32 -45 58 -19 26 -62 82 -95 124
l-60 77 -23 3 -22 3 0 -309 0 -310 -14 -11 -14 -12 -64 3 -63 3 -3 360 -2 360
11 28 11 27 32 10 c17 5 70 8 118 7 l88 -3 26 -25z m1707 8 c27 -8 66 -27 87
-41 l39 -25 33 -68 33 -68 0 -175 0 -175 -34 -69 -35 -68 -37 -25 c-20 -13
-59 -31 -86 -40 l-48 -16 -313 -5 c-172 -2 -323 -1 -337 2 l-25 6 0 389 0 389
13 6 c6 3 158 4 337 2 l325 -3 48 -16z" />
    <path d="M16182 4019 c-101 -9 -226 -40 -297 -73 -68 -31 -134 -92 -167 -153
-15 -26 -34 -77 -44 -113 l-18 -65 0 -145 -1 -145 14 -55 c14 -59 62 -163 89
-194 27 -31 129 -94 180 -110 26 -9 90 -25 142 -36 l95 -20 207 -11 208 -12
207 12 c115 6 226 15 248 20 22 5 75 17 118 26 42 9 104 30 136 46 l59 29 45
49 c56 60 82 111 103 198 l17 68 -1 135 0 135 -16 68 c-9 37 -25 85 -35 105
-11 21 -44 62 -73 92 l-53 53 -50 23 c-73 33 -195 62 -314 74 -118 12 -675 11
-799 -1z" />
    <path d="M10083 1765 c-17 -7 -37 -24 -45 -37 l-13 -23 0 -175 0 -176 17 -26
18 -27 37 -10 38 -11 230 0 230 0 35 18 c19 9 40 28 47 42 l13 25 0 165 0 165
-13 25 c-7 14 -28 33 -47 42 l-35 18 -240 0 -240 -1 -32 -14z" />
    <path d="M12602 1753 c-33 -46 -162 -299 -162 -317 l0 -16 200 0 200 0 0 10
c0 5 -22 47 -48 92 -27 46 -66 117 -87 158 -21 41 -42 81 -48 88 -15 19 -34
14 -55 -15z" />
    <path d="M15113 1769 l-33 -10 -17 -32 -18 -32 0 -165 0 -165 17 -31 17 -31
43 -12 44 -12 242 3 242 3 27 28 28 27 0 190 0 190 -28 27 -27 28 -253 2 -252
2 -32 -10z" />
    <path d="M18000 1685 l0 -95 248 0 247 0 34 10 c19 5 38 15 43 22 4 7 8 38 8
69 l0 56 -18 16 -19 17 -271 0 -272 0 0 -95z" />
    <path d="M18000 1380 l0 -100 273 0 274 0 16 18 17 19 0 66 0 66 -22 15 -22
16 -268 0 -268 0 0 -100z" />
    <path d="M21492 1765 l-33 -14 -15 -37 -16 -37 4 -162 3 -161 17 -27 18 -26
41 -11 41 -11 236 3 237 3 27 18 c14 10 31 32 37 49 l11 31 0 149 0 149 -15
35 -14 35 -35 14 -35 15 -238 0 -238 -1 -33 -14z" />
    <path d="M23990 1531 l0 -251 235 0 235 0 39 16 c22 9 47 26 55 39 8 12 20 53
27 91 l12 67 -6 81 c-3 45 -11 98 -17 118 l-11 37 -32 23 -32 23 -252 3 -253
3 0 -250z" />
  </g>
  <g transform="translate(0.000000,700.000000) scale(0.100000,-0.100000)" fill="#f48b1d" stroke="none">
    <path d="M2920 1740 c0 -649 3 -1180 8 -1180 7 0 58 29 247 140 50 29 119 68
155 88 36 19 76 43 90 52 14 10 43 28 65 40 122 67 227 127 280 160 33 20 107
63 165 95 58 32 128 72 155 90 28 17 109 64 180 104 72 40 153 86 180 103 28
17 100 59 160 93 309 175 365 209 365 220 0 7 -14 18 -31 25 -17 7 -36 18 -42
25 -7 6 -43 29 -82 50 -38 21 -107 60 -153 87 -45 26 -87 48 -91 48 -5 0 -11
4 -13 8 -1 5 -66 44 -143 87 -77 43 -151 85 -165 95 -14 9 -88 52 -165 95 -77
43 -144 81 -150 85 -14 11 -185 109 -270 155 -38 21 -77 43 -85 50 -8 7 -37
25 -65 40 -110 61 -252 143 -295 169 -97 59 -276 156 -287 156 l-13 0 0 -1180z" />
    <path d="M6852 1928 l-12 -12 0 -386 0 -386 12 -12 12 -12 71 0 71 0 12 12 12
12 0 386 0 386 -12 12 -12 12 -71 0 -71 0 -12 -12z" />
    <path d="M7373 1930 c-12 -5 -29 -20 -38 -33 l-15 -24 2 -374 3 -374 73 -3 74
-3 14 12 14 11 0 309 0 309 9 0 c5 0 27 -21 48 -47 21 -27 41 -50 44 -53 3 -3
37 -48 76 -100 39 -52 78 -104 87 -115 9 -11 50 -65 92 -120 41 -55 91 -119
110 -142 l35 -42 37 -11 c20 -5 69 -10 107 -10 l70 0 35 18 34 17 7 25 c4 14
7 188 8 386 l1 362 -16 6 c-20 8 -128 8 -148 0 l-16 -6 0 -314 0 -314 -12 0
c-7 0 -31 25 -53 56 -22 30 -60 81 -85 112 -25 31 -79 102 -119 156 -41 55
-83 109 -93 120 -11 12 -35 44 -53 71 -48 72 -90 112 -126 119 -45 9 -180 6
-206 -4z" />
    <path d="M8653 1933 c-13 -2 -32 -16 -43 -30 l-20 -26 0 -372 0 -373 16 -6 c9
-3 44 -6 78 -6 l62 0 12 12 12 12 0 308 0 308 13 -1 c12 0 59 -56 125 -147 18
-25 60 -80 92 -122 32 -41 107 -137 165 -212 l106 -137 42 -12 42 -11 82 4 83
4 25 24 25 24 -2 380 -3 381 -80 0 -80 0 -3 -317 -2 -318 -18 0 -17 0 -68 94
c-37 52 -85 116 -107 142 -41 51 -116 149 -226 296 l-65 87 -37 11 c-36 10
-164 12 -209 3z" />
    <path d="M10084 1930 c-82 -12 -120 -29 -163 -70 l-40 -39 -13 -43 -13 -43 0
-210 0 -210 24 -52 23 -52 35 -27 c19 -15 56 -33 82 -41 l46 -15 230 -5 230
-5 87 10 c124 16 178 47 221 127 l22 40 3 205 4 205 -12 53 -12 53 -30 35
c-42 47 -93 72 -175 84 -78 11 -473 11 -549 0z m536 -178 c19 -9 40 -28 47
-42 l13 -25 0 -155 0 -155 -13 -25 c-7 -14 -28 -33 -47 -42 l-35 -18 -220 0
-220 0 -38 11 -37 10 -18 27 -17 26 0 166 0 165 13 23 c8 13 28 30 45 37 l32
14 230 1 230 0 35 -18z" />
    <path d="M11040 1924 c0 -16 116 -244 129 -254 4 -3 34 -54 66 -115 32 -60 70
-131 84 -156 14 -26 51 -90 81 -144 30 -54 66 -105 79 -114 l25 -16 82 0 83 0
28 21 c27 20 66 83 140 229 20 39 42 77 48 85 7 8 43 74 80 145 37 72 76 141
85 155 27 39 80 148 80 165 l0 15 -88 0 -89 0 -15 -17 c-14 -17 -99 -170 -188
-338 -101 -192 -156 -288 -165 -289 -5 -1 -44 61 -85 136 -41 76 -93 170 -115
210 -22 40 -62 114 -88 163 -27 50 -55 100 -63 113 l-14 22 -90 0 -90 0 0 -16z" />
    <path d="M12553 1933 c-12 -2 -35 -19 -51 -37 -15 -18 -63 -97 -107 -177 -43
-79 -113 -207 -155 -284 -43 -77 -95 -172 -115 -212 l-38 -72 6 -15 6 -16 85
0 85 0 19 28 c11 15 32 53 47 85 l28 57 271 -2 270 -3 46 -80 46 -80 87 -3 87
-3 6 15 c6 15 -4 35 -135 271 -49 88 -124 224 -166 303 -42 78 -89 157 -103
174 -14 17 -41 37 -59 44 -30 13 -111 17 -160 7z m143 -263 c21 -41 59 -112
86 -157 l48 -83 -190 0 c-105 0 -190 3 -190 6 0 11 141 277 162 307 l21 29 12
-14 c7 -7 30 -47 51 -88z" />
    <path d="M13222 1932 l-13 -9 3 -74 3 -74 193 -3 192 -2 0 -320 0 -320 23 -5
c12 -3 52 -5 87 -3 l65 3 3 323 2 322 196 0 195 0 -3 83 -3 82 -465 2 -465 3
-13 -8z" />
    <path d="M14422 1928 l-12 -12 0 -386 0 -386 12 -12 12 -12 73 0 72 0 11 19
10 20 0 371 0 371 -10 20 -11 19 -72 0 -73 0 -12 -12z" />
    <path d="M15097 1929 c-32 -5 -73 -16 -92 -25 -48 -22 -101 -85 -117 -136
l-13 -43 0 -195 0 -195 13 -45 14 -45 47 -46 47 -46 45 -12 44 -13 230 -5 230
-5 89 11 89 11 51 28 51 29 23 44 22 44 10 85 c12 107 12 233 0 330 l-10 75
-22 44 -23 44 -50 28 -51 28 -69 11 c-83 11 -475 11 -558 -1z m570 -192 l28
-27 0 -180 0 -180 -28 -27 -27 -28 -232 -3 -232 -3 -44 12 -43 12 -17 31 -17
31 0 155 0 155 18 32 17 32 33 10 32 10 242 -2 243 -2 27 -28z" />
    <path d="M16215 1926 c-17 -7 -36 -25 -43 -40 l-12 -27 0 -363 0 -364 16 -6
c9 -3 42 -6 74 -6 32 0 65 3 74 6 l16 6 0 314 0 314 15 0 c8 0 53 -51 100
-112 47 -62 121 -160 166 -218 44 -58 111 -146 149 -196 37 -50 76 -94 87 -99
10 -4 56 -9 103 -12 l85 -5 40 14 40 13 12 35 12 35 0 351 1 352 -14 11 -14
12 -74 -3 -73 -3 -3 -317 -2 -318 -15 0 c-8 0 -18 6 -22 14 -4 7 -20 29 -36
47 -15 19 -97 126 -183 239 -85 113 -176 231 -201 263 l-47 57 -35 10 c-20 5
-70 10 -111 10 l-75 -1 -30 -13z" />
    <path d="M17832 1928 l-12 -12 0 -388 0 -387 21 -11 20 -11 382 3 382 3 39 20
c22 11 49 33 60 48 l21 28 3 110 4 109 -12 29 c-6 16 -22 39 -35 51 l-23 21
23 24 c13 12 29 42 35 66 l12 44 -4 78 -5 78 -19 26 c-32 42 -65 62 -123 73
l-54 10 -351 0 -352 0 -12 -12z m720 -175 l18 -16 0 -46 c0 -25 -4 -52 -8 -59
-5 -7 -24 -17 -43 -22 l-34 -10 -237 0 -238 0 0 85 0 85 262 0 261 0 19 -17z
m-4 -299 l22 -15 0 -56 0 -56 -17 -19 -16 -18 -264 0 -263 0 0 90 0 90 258 0
258 0 22 -16z" />
    <path d="M19238 1929 c-65 -9 -123 -36 -155 -71 -12 -12 -32 -45 -44 -73 l-23
-50 -1 -200 0 -200 18 -45 c42 -103 99 -144 220 -160 89 -12 597 -13 615 -1
l13 8 -3 74 -3 74 -307 5 -308 5 -30 30 -30 31 -7 52 -6 52 339 2 339 3 3 73
3 72 -342 0 -342 0 7 47 6 48 30 30 30 30 308 5 307 5 0 80 0 80 -290 1 c-159
1 -316 -2 -347 -7z" />
    <path d="M20084 1929 l-6 -11 24 -26 c14 -15 58 -72 98 -126 40 -55 82 -109
92 -120 11 -12 30 -37 43 -56 13 -19 55 -75 94 -125 l71 -90 0 -122 0 -123 23
-5 c12 -3 52 -5 87 -3 l65 3 3 120 3 120 64 85 c35 47 103 135 150 195 155
200 198 258 199 274 l1 16 -85 3 c-47 1 -90 -1 -95 -5 -6 -5 -30 -35 -54 -68
-25 -33 -47 -62 -51 -65 -3 -3 -38 -50 -78 -105 -40 -55 -78 -107 -85 -115 -7
-8 -22 -27 -33 -42 l-21 -27 -59 82 c-32 45 -76 105 -99 133 -22 29 -58 78
-80 109 -22 32 -50 68 -62 81 l-22 24 -90 0 -90 0 -7 -11z" />
    <path d="M21485 1930 c-27 -4 -63 -13 -80 -20 -52 -20 -97 -61 -119 -109 l-21
-46 0 -225 0 -225 24 -48 c26 -54 66 -88 132 -114 l44 -17 300 0 300 -1 56 23
c31 12 65 32 76 45 12 12 32 42 45 67 l23 45 0 225 0 225 -25 49 c-28 55 -66
88 -131 112 l-44 17 -265 3 c-146 1 -287 -1 -315 -6z m541 -175 l35 -14 14
-35 15 -35 0 -139 0 -139 -11 -31 c-6 -17 -23 -39 -37 -49 l-27 -18 -226 -3
-227 -3 -41 11 -41 11 -18 26 -17 27 -3 151 -4 152 16 37 15 37 33 14 33 14
228 1 228 0 35 -15z" />
    <path d="M22604 1930 l-32 -10 -11 -27 -11 -28 2 -370 3 -370 73 -3 74 -3 14
12 14 11 0 310 0 310 13 -4 c12 -4 94 -104 167 -204 19 -26 40 -52 45 -58 6
-6 50 -63 98 -126 48 -63 106 -140 130 -170 l43 -55 34 -12 c19 -7 68 -12 108
-12 l73 -1 34 14 c18 8 38 23 44 35 l11 20 -2 373 -3 373 -73 3 -74 3 -14 -12
-14 -11 0 -309 c0 -170 -4 -309 -8 -309 -12 0 -51 45 -130 150 -39 52 -82 108
-94 125 -13 16 -52 68 -88 115 -35 47 -67 87 -70 90 -3 3 -22 28 -42 55 -20
28 -48 61 -63 75 l-26 24 -97 3 c-53 1 -111 -2 -128 -7z" />
    <path d="M23833 1934 l-13 -6 0 -399 0 -399 25 -6 c13 -3 170 -4 347 -2 l323
5 48 16 c27 8 66 27 86 40 l37 25 35 68 34 69 0 185 0 185 -33 68 -33 68 -39
25 c-21 14 -60 33 -87 41 l-48 16 -335 3 c-184 2 -341 1 -347 -2z m684 -192
l32 -23 11 -37 c6 -20 14 -69 17 -108 l6 -71 -12 -67 c-7 -38 -19 -79 -27 -91
-8 -13 -33 -30 -55 -39 l-39 -16 -225 0 -225 0 0 241 0 240 243 -3 242 -3 32
-23z" />
  </g>
  <g transform="translate(0.000000,700.000000) scale(0.100000,-0.100000)" fill="#08439a" stroke="none">
    <path d="M24115 3091 l-231 -6 -69 -42 c-80 -47 -138 -69 -243 -89 l-74 -14
-439 0 -439 0 0 57 0 56 -257 -6 c-141 -4 -296 -7 -345 -7 l-88 0 0 -161 0
-161 228 5 c125 3 666 17 1202 31 536 14 1002 26 1036 26 l61 0 65 88 c36 48
82 120 102 160 l36 72 -157 -2 c-87 -1 -262 -4 -388 -7z" />
    <path d="M20577 3005 c-257 -7 -471 -15 -474 -19 -7 -7 80 -92 179 -176 31
-27 76 -67 100 -90 l43 -42 235 6 c129 3 335 9 458 12 l222 7 0 158 0 159
-147 -1 c-82 -1 -359 -7 -616 -14z" />
    <path d="M18853 2963 l-133 -4 0 -161 0 -161 233 6 c127 4 267 7 310 7 l77 0
0 160 0 160 -177 -2 c-98 -1 -238 -4 -310 -5z" />
    <path d="M16550 2902 c-778 -19 -1417 -36 -1419 -38 -2 -2 21 -37 52 -77 60
-78 117 -131 209 -191 l56 -38 1159 27 c637 14 1173 29 1191 31 l33 5 70 67
c70 65 140 155 173 220 l17 32 -63 -1 c-35 -1 -700 -17 -1478 -37z" />
    <path d="M13175 2819 c-594 -15 -1086 -28 -1092 -28 l-13 -1 0 -161 0 -162
143 6 c78 4 570 16 1092 27 523 12 964 23 980 26 l30 4 65 82 c36 45 91 117
122 160 l58 78 -153 -1 c-83 -1 -638 -14 -1232 -30z" />
    <path d="M9685 2729 c-132 -3 -284 -7 -338 -8 l-98 -1 62 -90 c34 -49 93 -120
131 -156 l69 -67 187 6 c103 4 231 7 285 7 l98 0 67 68 c60 59 192 229 192
246 0 7 -317 5 -655 -5z" />
    <path d="M7215 2669 c-132 -3 -270 -7 -307 -8 l-68 -1 0 -145 0 -145 345 0
345 0 0 155 0 155 -37 -2 c-21 -1 -146 -5 -278 -9z" />
  </g>
  <g transform="translate(0.000000,700.000000) scale(0.100000,-0.100000)" fill="#0769b8" stroke="none">
    <path d="M16330 4593 c-227 -15 -446 -52 -613 -104 -54 -16 -146 -54 -205 -84
-108 -55 -242 -148 -242 -167 l0 -10 208 5 c1789 47 2163 57 2256 57 l109 0
-17 19 c-23 25 -252 141 -331 169 -156 53 -376 94 -604 112 -122 9 -447 11
-561 3z" />
    <path d="M18994 4591 c-56 -14 -128 -54 -169 -96 l-40 -40 -24 -63 c-13 -34
-21 -65 -18 -68 3 -3 183 -3 399 1 l392 8 -87 83 c-48 45 -114 101 -147 122
l-60 40 -50 11 c-57 12 -149 13 -196 2z" />
    <path d="M6840 4293 l0 -276 248 6 c136 4 291 7 345 7 l97 0 0 270 0 270 -345
0 -345 0 0 -277z" />
    <path d="M7970 4568 c0 -2 36 -55 80 -118 44 -63 116 -169 161 -235 45 -66 89
-128 98 -138 l16 -19 330 7 c181 4 365 10 408 14 l78 6 -97 140 c-53 77 -117
171 -142 209 -24 38 -50 76 -58 84 -8 7 -19 22 -24 33 l-11 19 -419 0 c-231 0
-420 -1 -420 -2z" />
    <path d="M10818 4551 c-9 -10 -51 -70 -93 -132 -43 -63 -86 -123 -95 -134 -26
-29 -120 -169 -116 -172 2 -2 162 1 357 7 195 5 378 10 407 10 l52 0 43 59
c23 33 65 92 92 132 28 40 55 77 60 83 6 6 34 46 63 89 l53 77 -403 0 -404 0
-16 -19z" />
    <path d="M12070 4360 l0 -210 32 0 c38 0 2049 49 2162 52 l80 3 92 120 c51 66
112 144 136 173 24 29 45 57 46 62 l4 10 -1276 0 -1276 0 0 -210z" />
    <path d="M20710 4467 l0 -104 153 4 c83 2 225 6 315 9 l162 6 0 94 0 94 -315
0 -315 0 0 -103z" />
    <path d="M22305 4490 c-32 -45 -56 -83 -53 -85 4 -4 717 13 1408 35 162 5 307
9 323 9 48 1 29 17 -48 40 -131 39 -256 61 -415 71 -85 5 -380 10 -656 10
l-501 0 -58 -80z" />
  </g>
  <g transform="translate(0.000000,700.000000) scale(0.100000,-0.100000)" fill="#0763b4" stroke="none">
    <path d="M23998 4464 c-9 -8 -1727 -56 -1739 -48 -5 3 -48 -48 -95 -113 -48
-65 -97 -129 -110 -143 l-23 -25 112 3 c553 14 2186 52 2230 52 32 0 57 4 57
9 0 5 -37 39 -82 75 l-81 65 -111 57 c-123 62 -152 75 -158 68z" />
    <path d="M21235 4390 c-55 -4 -196 -9 -312 -11 l-213 -2 0 -138 0 -138 213 5
c116 2 258 7 315 10 l102 6 0 139 c0 76 -1 138 -2 137 -2 0 -48 -4 -103 -8z" />
    <path d="M18925 4330 l-190 -5 -7 -40 c-4 -22 -7 -83 -7 -137 l-1 -96 98 4
c53 2 297 9 542 15 244 5 447 12 450 15 3 3 -13 20 -35 37 -22 18 -84 74 -139
125 l-99 92 -211 -2 c-116 -1 -296 -5 -401 -8z" />
    <path d="M16600 4274 c-476 -13 -971 -26 -1100 -29 l-235 -5 -60 -70 c-33 -39
-77 -102 -98 -142 l-39 -71 169 6 c92 4 305 9 473 13 l305 6 80 16 80 16 640
1 c352 1 778 5 947 9 l308 9 -23 41 c-12 22 -62 82 -111 133 l-89 93 -191 -1
c-105 -1 -580 -12 -1056 -25z" />
    <path d="M13095 4184 c-478 -12 -905 -23 -947 -23 l-78 -1 0 -137 0 -136 233
6 c127 4 280 7 340 7 l107 0 0 45 0 45 713 0 714 0 27 33 c46 54 136 175 136
181 0 10 -320 5 -1245 -20z" />
    <path d="M11085 4138 c-137 -4 -323 -11 -412 -14 l-162 -6 -28 -42 c-15 -22
-31 -43 -34 -46 -14 -11 -129 -184 -125 -187 2 -2 185 1 407 7 l404 11 22 27
c23 27 187 263 181 260 -2 -1 -115 -5 -253 -10z" />
    <path d="M8725 4078 c-159 -4 -318 -7 -352 -6 l-61 3 6 -10 c32 -52 175 -256
183 -261 14 -9 784 7 799 16 l13 8 -59 87 c-33 48 -72 107 -88 131 l-29 44
-61 -2 c-34 0 -191 -5 -351 -10z" />
    <path d="M6840 3898 l0 -138 118 0 c65 0 221 3 345 7 l227 6 0 135 0 134 -345
-3 -345 -4 0 -137z" />
  </g>
  <g transform="translate(0.000000,700.000000) scale(0.100000,-0.100000)" fill="#084aa0" stroke="none">
    <path d="M24183 3393 l-132 -4 -7 -32 c-12 -59 -63 -151 -119 -220 l-57 -69
79 6 c43 3 220 9 394 12 l317 6 26 87 c14 47 29 116 34 154 l9 67 -206 -2
c-113 -1 -265 -4 -338 -5z" />
    <path d="M22098 3343 l-168 -3 0 -155 0 -155 98 0 c53 0 208 3 345 7 l247 6 0
154 0 153 -177 -2 c-98 -1 -253 -4 -345 -5z" />
    <path d="M20975 3310 c-137 -4 -378 -10 -535 -14 -424 -9 -670 -18 -669 -25 0
-3 34 -35 76 -71 41 -36 85 -75 97 -86 11 -12 51 -48 87 -81 l67 -59 93 7
c139 11 1126 32 1139 24 l10 -6 0 160 0 161 -57 -2 c-32 -1 -170 -5 -308 -8z" />
    <path d="M18945 3260 c-121 -4 -221 -7 -222 -8 -2 -1 -3 -70 -3 -154 l0 -151
203 6 c111 4 250 7 310 7 l107 0 0 155 0 155 -87 -2 c-49 -1 -187 -5 -308 -8z" />
    <path d="M17708 3230 c-119 -3 -218 -7 -221 -10 -2 -3 -15 -25 -27 -49 -30
-60 -100 -132 -158 -164 -79 -43 -248 -81 -427 -96 l-90 -8 110 -1 c61 -1 353
5 649 12 l539 14 8 14 c5 7 9 16 9 20 0 4 11 31 24 60 23 50 56 171 56 204 l0
14 -127 -2 c-71 -1 -226 -5 -345 -8z" />
    <path d="M15243 3170 c-122 -3 -224 -7 -227 -10 -8 -9 20 -106 51 -180 27 -65
67 -132 74 -126 2 2 360 12 794 21 435 10 793 21 797 24 4 3 -28 4 -72 3 -43
-2 -168 1 -277 7 l-198 11 -95 20 c-132 28 -180 45 -248 89 -59 39 -83 64
-114 120 l-17 31 -123 -2 c-68 -1 -223 -5 -345 -8z" />
    <path d="M12218 3093 l-148 -4 0 -155 0 -155 138 6 c75 3 634 17 1242 31
l1105 25 28 32 c16 18 33 40 38 50 l10 17 -941 0 -940 0 0 80 0 80 -192 -2
c-106 -1 -259 -4 -340 -5z" />
    <path d="M9680 3030 c-344 -9 -626 -18 -627 -19 -2 -1 56 -88 170 -253 l32
-48 335 8 c184 4 428 7 543 7 114 0 207 3 207 6 0 3 28 43 62 90 58 78 134
188 152 217 l7 12 -128 -2 c-70 0 -409 -9 -753 -18z" />
    <path d="M7190 2969 c-129 -3 -261 -7 -292 -8 l-58 -1 0 -157 0 -158 117 7
c65 3 197 7 293 7 96 1 199 4 228 7 l52 7 0 153 0 154 -52 -2 c-29 -1 -159 -5
-288 -9z" />
  </g>
  <g transform="translate(0.000000,700.000000) scale(0.100000,-0.100000)" fill="#002c6e" stroke="none">
    <path d="M2920 4086 l0 -1185 21 4 c12 3 29 11 38 18 16 13 48 32 164 96 32
18 79 45 105 61 52 32 299 173 510 293 75 42 157 90 182 105 47 30 161 95 265
152 33 18 67 38 75 45 8 7 86 52 172 101 427 241 518 295 518 305 0 10 -14 19
-155 97 -60 34 -115 65 -120 70 -6 4 -42 26 -80 47 -39 21 -107 60 -153 87
-45 26 -84 48 -87 48 -2 0 -23 13 -47 29 -24 15 -79 47 -122 71 -44 23 -118
66 -165 95 -47 29 -140 82 -206 119 -66 37 -147 83 -180 103 -33 19 -105 60
-160 90 -55 31 -107 61 -115 68 -8 7 -37 25 -65 40 -108 58 -232 130 -280 160
-27 18 -65 40 -82 49 l-33 17 0 -1185z" />
  </g>
  <g transform="translate(0.000000,700.000000) scale(0.100000,-0.100000)" fill="#1565c0" stroke="none">
    <path d="M2860 5235 c-30 -18 -113 -66 -185 -106 -71 -40 -152 -87 -180 -104
-50 -32 -158 -94 -270 -155 -33 -18 -67 -38 -75 -45 -8 -7 -44 -28 -80 -48
-36 -19 -108 -60 -160 -90 -52 -31 -124 -72 -160 -93 -186 -106 -259 -148
-300 -173 -25 -15 -70 -41 -100 -58 -52 -28 -128 -72 -208 -120 -21 -12 -84
-48 -141 -80 -57 -32 -106 -63 -107 -68 -4 -11 25 -29 234 -148 79 -45 187
-107 240 -137 54 -31 124 -71 157 -89 32 -19 83 -49 112 -67 28 -19 54 -34 57
-34 3 0 31 -15 63 -34 32 -18 78 -45 103 -58 25 -14 79 -46 120 -70 105 -63
393 -229 465 -269 33 -18 78 -44 100 -58 22 -14 55 -34 74 -44 150 -82 270
-153 289 -170 l22 -20 0 1186 c0 653 -3 1187 -7 1187 -5 -1 -33 -16 -63 -35z" />
  </g>
  <g transform="translate(0.000000,700.000000) scale(0.100000,-0.100000)" fill="#0d47a1" stroke="none">
    <path d="M4892 4044 c-40 -25 -121 -72 -180 -105 -201 -114 -427 -244 -469
-272 -24 -15 -44 -27 -46 -27 -5 0 -224 -125 -282 -161 -22 -13 -99 -58 -172
-99 -227 -128 -456 -260 -505 -290 -25 -15 -68 -40 -95 -55 -117 -66 -169 -96
-188 -111 l-20 -16 10 -4 c14 -6 210 -117 265 -151 43 -26 187 -108 295 -168
28 -15 57 -33 65 -40 8 -7 47 -29 85 -50 85 -46 256 -144 270 -155 6 -4 73
-42 150 -85 77 -43 151 -86 165 -95 14 -10 88 -52 165 -95 77 -43 142 -82 143
-87 2 -4 8 -8 13 -8 4 0 46 -22 91 -48 46 -27 115 -66 153 -87 39 -21 72 -41
75 -45 3 -4 24 -17 48 -29 l42 -21 0 1175 c0 646 -1 1175 -2 1175 -2 -1 -36
-21 -76 -46z" />
  </g>
  <g transform="translate(0.000000,700.000000) scale(0.100000,-0.100000)" fill="#fec723" stroke="none">
    <path d="M2917 2912 c3 -6 -23 -21 -182 -110 -55 -30 -102 -58 -105 -61 -3 -4
-77 -47 -165 -95 -88 -49 -162 -92 -165 -95 -3 -4 -76 -46 -163 -95 -88 -48
-178 -101 -202 -117 -24 -16 -45 -29 -48 -29 -3 0 -44 -23 -92 -50 -48 -27
-89 -50 -92 -50 -3 0 -24 -13 -48 -29 -24 -16 -112 -68 -197 -116 -84 -48
-229 -131 -323 -186 -93 -54 -188 -108 -209 -120 l-39 -21 49 -28 c27 -15 81
-45 119 -68 39 -22 140 -79 225 -127 85 -48 162 -93 170 -100 8 -7 38 -25 65
-40 110 -59 231 -129 255 -145 14 -9 88 -52 165 -95 77 -42 163 -92 190 -109
28 -18 109 -65 180 -105 72 -40 153 -86 180 -103 28 -17 79 -46 115 -66 36
-20 85 -48 110 -63 37 -23 201 -117 220 -127 3 -1 4 525 2 1170 l-2 1172 -9 7
c-4 3 -6 4 -4 1z" />
  </g>
  <g transform="translate(0.000000,700.000000) scale(0.100000,-0.100000)" fill="#1d87e4" stroke="none">
    <path d="M890 5260 l0 -1181 27 19 c16 11 75 46 133 78 58 32 113 63 122 69
60 36 141 83 188 108 30 17 75 43 100 58 41 25 114 67 300 173 36 21 108 62
160 93 52 30 124 71 160 90 36 20 72 41 80 48 8 7 42 27 75 45 112 61 220 123
270 155 28 17 109 64 180 104 72 40 156 88 189 108 l59 35 -84 48 c-46 27
-102 59 -124 73 -33 21 -112 66 -300 171 -11 6 -38 23 -60 37 -22 14 -71 43
-110 64 -38 21 -133 75 -210 120 -77 45 -174 101 -215 124 -41 23 -113 65
-160 92 -47 28 -119 69 -160 91 -41 22 -82 46 -90 53 -8 7 -37 25 -65 40 -103
56 -232 130 -280 160 -27 17 -80 48 -117 68 l-68 37 0 -1180z" />
  </g>
  <g transform="translate(0.000000,700.000000) scale(0.100000,-0.100000)" fill="#0751a5" stroke="none">
    <path d="M24375 3649 c-132 -3 -268 -7 -303 -8 l-63 -1 18 -32 17 -33 4 -99 4
-99 202 6 c110 4 263 7 339 7 l137 0 0 74 c0 40 -3 101 -6 135 l-7 61 -51 -2
c-28 -1 -159 -5 -291 -9z" />
    <path d="M22310 3599 c-129 -3 -268 -7 -307 -8 l-73 -1 0 -132 0 -131 257 6
c141 4 296 7 345 7 l88 0 0 135 0 135 -37 -2 c-21 -1 -144 -5 -273 -9z" />
    <path d="M21080 3569 c-129 -3 -265 -7 -302 -8 l-68 -1 0 -138 0 -138 68 7
c37 4 178 9 314 10 l248 4 0 138 0 137 -12 -2 c-7 -1 -119 -5 -248 -9z" />
    <path d="M19786 3539 c-159 -5 -290 -10 -293 -12 -2 -3 61 -62 139 -133 l143
-129 165 7 c91 4 299 10 462 13 l297 7 -22 23 c-12 13 -49 46 -82 73 -33 28
-87 76 -120 106 l-60 56 -170 -2 c-93 0 -300 -5 -459 -9z" />
    <path d="M19015 3519 c-132 -3 -252 -7 -267 -8 l-28 -1 0 -133 0 -133 138 3
c75 2 215 6 310 9 l172 6 0 134 0 134 -42 -2 c-24 -1 -151 -5 -283 -9z" />
    <path d="M17668 3483 l-147 -4 -5 -57 c-8 -71 -25 -177 -32 -195 l-5 -14 93 3
c51 2 209 7 350 10 l257 6 5 14 c3 7 8 65 12 129 l7 115 -194 -2 c-107 -1
-260 -4 -341 -5z" />
    <path d="M15156 3423 l-179 -3 7 -78 c4 -42 12 -105 17 -139 l11 -62 25 10
c13 5 89 9 167 9 79 0 225 3 325 7 l182 6 -6 21 c-14 43 -35 142 -40 189 l-6
47 -162 -2 c-89 -1 -242 -4 -341 -5z" />
    <path d="M13235 3374 c-478 -12 -936 -23 -1017 -23 l-148 -1 0 -137 0 -136
227 6 c124 4 277 7 340 7 l113 0 0 70 0 70 680 0 680 0 46 63 c25 34 49 64 53
67 3 3 12 13 20 23 l13 17 -68 -1 c-38 -1 -460 -12 -939 -25z" />
    <path d="M10360 3299 c-129 -3 -281 -7 -336 -8 l-101 -1 -59 -85 c-33 -47 -61
-85 -64 -85 -3 0 -16 18 -30 40 -14 22 -27 40 -30 40 -3 0 -16 18 -30 41 l-25
41 -360 -8 c-198 -3 -379 -9 -402 -13 l-43 -6 68 -101 c37 -55 76 -111 87
-125 l20 -24 675 17 c371 9 710 17 752 17 l78 1 27 43 c15 23 41 60 58 82 17
22 48 64 69 93 l38 52 -79 -2 c-43 -1 -184 -5 -313 -9z" />
    <path d="M7075 3220 c-126 -4 -231 -8 -232 -9 -2 0 -3 -61 -3 -133 l0 -133
102 6 c57 4 178 7 269 8 91 1 200 4 242 7 l77 7 0 128 0 129 -112 -2 c-62 -1
-216 -5 -343 -8z" />
  </g>
  <g transform="translate(0.000000,700.000000) scale(0.100000,-0.100000)" fill="#073c95" stroke="none">
    <path d="M3614 3308 l-7 -11 11 7 c7 4 12 9 12 12 0 8 -9 4 -16 -8z" />
    <path d="M3284 3118 l-7 -11 11 7 c7 4 12 9 12 12 0 8 -9 4 -16 -8z" />
    <path d="M23310 2764 c-476 -13 -981 -26 -1122 -30 l-258 -7 0 -179 0 -178
808 0 807 0 102 15 c56 8 139 24 184 35 118 30 262 90 359 150 88 54 193 135
244 189 l30 31 -145 -1 c-79 -1 -533 -12 -1009 -25z" />
    <path d="M21135 2708 c-110 -4 -317 -10 -460 -14 l-259 -6 29 -25 c17 -14 64
-55 105 -93 204 -183 245 -213 314 -231 l46 -11 84 4 83 4 54 28 c68 35 130
94 158 151 20 41 55 180 49 194 -2 3 -93 3 -203 -1z" />
    <path d="M18873 2653 l-153 -4 0 -139 0 -140 310 0 310 0 0 145 0 145 -157 -2
c-87 -1 -227 -4 -310 -5z" />
    <path d="M16690 2599 c-608 -15 -1139 -29 -1180 -31 l-75 -3 70 -37 c93 -48
214 -90 355 -121 187 -43 267 -56 415 -68 l140 -12 270 7 c149 4 297 10 330
15 102 14 276 48 363 70 102 27 279 94 324 124 18 13 54 35 81 50 26 15 47 30
47 32 0 3 -8 4 -17 4 -10 -1 -515 -14 -1123 -30z" />
    <path d="M14280 2539 c-25 -5 -470 -18 -990 -29 -520 -11 -1007 -23 -1082 -26
l-138 -7 0 -53 0 -54 1062 2 1062 3 49 60 c50 62 91 116 85 114 -2 -1 -23 -5
-48 -10z" />
    <path d="M9630 2420 l-124 -5 24 -15 c14 -9 48 -27 75 -40 l50 -25 130 0 130
0 50 24 c28 13 66 34 85 47 l35 24 -165 -2 c-91 -1 -221 -5 -290 -8z" />
  </g>
  <g transform="translate(0.000000,700.000000) scale(0.100000,-0.100000)" fill="#075eb0" stroke="none">
    <path d="M24420 4207 c-3 -3 -538 -18 -1189 -33 l-1185 -29 -22 -25 c-12 -14
-38 -48 -58 -77 l-36 -52 808 -3 807 -4 50 -14 50 -15 473 11 c260 6 475 14
478 17 7 7 -74 122 -129 183 -23 25 -44 44 -47 41z" />
    <path d="M21270 4130 c-36 -4 -176 -9 -312 -11 l-248 -4 0 -116 0 -116 163 4
c89 2 231 6 315 9 l152 6 0 119 c0 65 -1 118 -2 118 -2 -1 -32 -5 -68 -9z" />
    <path d="M19670 4089 c-74 -4 -301 -10 -505 -13 -203 -4 -387 -9 -407 -12
l-38 -6 0 -114 0 -114 18 0 c132 0 1195 33 1246 38 l70 7 -70 59 c-38 33 -94
83 -124 111 l-55 51 -135 -7z" />
    <path d="M17330 4027 l-405 -10 96 -13 c103 -13 222 -45 281 -75 20 -10 61
-44 91 -74 l55 -56 294 6 c161 3 321 8 355 11 l62 5 -13 37 c-8 20 -28 70 -46
110 l-33 72 -166 -2 c-91 -1 -348 -6 -571 -11z" />
    <path d="M15376 3979 l-299 -8 -9 -13 c-8 -12 -50 -148 -61 -196 l-5 -23 256
6 c141 3 303 8 358 11 l102 6 10 23 c18 39 82 104 129 132 24 14 76 36 116 49
l72 23 -185 -1 c-102 -1 -320 -5 -484 -9z" />
    <path d="M12223 3903 l-153 -4 0 -120 0 -121 33 5 c17 3 447 16 955 29 507 12
922 26 922 30 0 4 -277 8 -615 8 l-615 0 0 90 0 90 -187 -2 c-104 -1 -257 -4
-340 -5z" />
    <path d="M11129 3876 c-3 -3 -185 -10 -404 -16 l-400 -10 -13 -20 c-8 -10 -23
-29 -34 -42 -11 -13 -43 -56 -70 -97 l-50 -74 318 7 c176 3 362 9 415 12 l96
6 74 106 c41 59 78 112 82 119 l8 13 -9 0 c-5 0 -11 -2 -13 -4z" />
    <path d="M9290 3830 c-8 -4 -191 -10 -406 -12 l-391 -3 79 -118 80 -119 176 6
c98 3 279 9 405 12 125 3 227 8 227 10 0 5 -77 121 -123 186 l-33 46 -14 -8z" />
    <path d="M6840 3656 l0 -119 257 6 c141 4 296 7 345 7 l88 0 0 116 0 115 -345
-3 -345 -3 0 -119z" />
  </g>
  <g transform="translate(0.000000,700.000000) scale(0.100000,-0.100000)" fill="#0755a9" stroke="none">
    <path d="M24108 3813 c-109 -2 -198 -6 -198 -9 0 -3 16 -24 35 -46 19 -22 42
-61 52 -85 l18 -45 185 6 c102 3 260 7 352 8 l166 3 -5 30 c-3 17 -12 56 -20
88 l-16 57 -186 -2 c-102 -2 -275 -4 -383 -5z" />
    <path d="M20858 3733 l-148 -4 0 -92 0 -92 122 7 c68 3 210 7 316 8 l192 2 0
89 0 89 -167 -2 c-93 -1 -234 -4 -315 -5z" />
    <path d="M21930 3660 l0 -81 273 6 c149 3 305 8 345 11 l72 6 0 69 0 69 -345
0 -345 0 0 -80z" />
    <path d="M19740 3704 c-245 -7 -564 -15 -710 -19 -146 -3 -275 -8 -287 -11
l-23 -4 0 -84 0 -85 228 5 c125 3 264 7 309 10 l82 6 3 63 3 64 75 -65 74 -65
236 7 c129 3 337 9 462 13 l227 6 -96 85 -95 85 -22 1 c-11 1 -221 -5 -466
-12z" />
    <path d="M17708 3653 l-207 -3 5 -58 c3 -31 7 -72 10 -90 l5 -34 337 7 c185 4
339 9 341 11 2 2 0 42 -4 89 l-7 85 -136 -2 c-76 -2 -230 -4 -344 -5z" />
    <path d="M15215 3590 c-126 -4 -231 -8 -232 -9 -2 0 -3 -40 -3 -87 l0 -87 338
8 c185 4 338 8 338 8 1 1 4 41 7 90 l6 87 -112 -2 c-62 -1 -215 -5 -342 -8z" />
    <path d="M13145 3540 c-588 -16 -1071 -29 -1072 -29 -2 -1 -3 -39 -3 -86 l0
-85 123 0 c67 0 554 11 1081 24 l959 24 26 33 c14 18 45 59 68 91 l43 58 -78
-1 c-42 -1 -558 -14 -1147 -29z" />
    <path d="M10470 3469 c-129 -3 -278 -7 -330 -8 l-96 -1 -63 -91 -63 -92 268 7
c148 3 334 9 414 12 l145 6 28 42 c15 22 44 62 63 89 l36 47 -84 -2 c-45 -1
-189 -5 -318 -9z" />
    <path d="M9170 3439 c-162 -5 -321 -10 -353 -11 l-58 -3 61 -86 61 -86 187 4
c103 3 285 8 404 12 l217 6 -57 85 -57 85 -55 1 c-30 1 -188 -2 -350 -7z" />
    <path d="M7170 3389 c-129 -3 -256 -7 -282 -8 l-48 -1 0 -94 0 -94 38 9 c20 5
100 9 178 9 77 0 216 3 307 7 l167 6 0 89 0 88 -62 -2 c-35 -1 -169 -5 -298
-9z" />
  </g>
  <g transform="translate(0.000000,700.000000) scale(0.100000,-0.100000)" fill="#0759ac" stroke="none">
    <path d="M24524 3989 c-39 -4 -251 -10 -472 -14 l-402 -8 -6 -8 c-3 -5 2 -9
11 -9 15 0 145 -62 169 -80 6 -5 29 -24 51 -42 l40 -33 382 9 381 8 -13 37
c-7 21 -26 62 -41 92 l-29 54 -71 -6z" />
    <path d="M21240 3910 c-52 -4 -193 -9 -312 -11 l-218 -3 0 -91 0 -90 212 8
c117 4 259 6 316 5 l102 -3 0 98 c0 53 -1 96 -2 95 -2 0 -46 -4 -98 -8z" />
    <path d="M19939 3875 c-3 -3 -1102 -35 -1210 -35 l-9 0 0 -87 0 -88 152 2 c84
2 252 7 373 13 121 5 382 13 580 16 198 4 370 10 383 13 l22 6 -92 82 -93 82
-51 1 c-28 0 -53 -2 -55 -5z" />
    <path d="M17805 3818 c-159 -5 -308 -7 -330 -6 l-41 3 23 -41 c12 -22 29 -67
37 -100 8 -32 15 -54 15 -48 l1 11 337 7 c186 4 339 8 340 10 2 1 -4 42 -13
89 l-16 87 -32 -2 c-17 0 -161 -5 -321 -10z" />
    <path d="M15380 3759 c-129 -3 -267 -7 -306 -8 l-72 -1 -6 -57 c-4 -32 -9 -72
-12 -90 l-6 -31 119 4 c65 2 220 7 344 10 l226 6 13 57 c7 31 18 71 26 89 l13
32 -52 -2 c-29 -1 -158 -5 -287 -9z" />
    <path d="M13065 3704 c-500 -12 -929 -26 -952 -29 l-43 -6 0 -84 0 -83 148 4
c81 3 596 16 1145 29 548 13 1001 26 1006 30 11 6 121 151 121 159 0 11 -501
4 -1425 -20z" />
    <path d="M10650 3639 c-129 -3 -291 -7 -360 -8 l-126 -1 -16 -27 c-9 -16 -25
-37 -36 -49 -11 -11 -31 -39 -46 -62 l-26 -42 67 0 c38 0 223 5 413 10 l345
10 10 16 c6 9 34 49 62 90 l53 74 -53 -2 c-28 -1 -158 -5 -287 -9z" />
    <path d="M9449 3615 c-2 -2 -182 -8 -398 -14 -217 -6 -396 -13 -399 -16 -3 -3
4 -15 15 -28 11 -12 37 -48 58 -79 l38 -58 101 1 c180 0 697 17 702 22 3 2
-14 33 -37 68 -53 81 -75 109 -80 104z" />
    <path d="M6840 3460 l0 -95 92 7 c51 3 165 7 254 7 88 1 202 4 252 7 l92 7 0
85 0 84 -345 -3 -345 -4 0 -95z" />
  </g>
  <g transform="translate(0.000000,700.000000) scale(0.100000,-0.100000)" fill="#f9c58d" stroke="none">
    <path d="M1304 1978 l-7 -11 11 7 c12 7 16 16 8 16 -3 0 -8 -5 -12 -12z" />
    <path d="M6898 1933 c23 -2 59 -2 80 0 20 2 1 4 -43 4 -44 0 -61 -2 -37 -4z" />
    <path d="M7433 1933 c26 -2 68 -2 95 0 26 2 4 3 -48 3 -52 0 -74 -1 -47 -3z" />
    <path d="M8173 1933 c20 -2 54 -2 75 0 20 2 3 4 -38 4 -41 0 -58 -2 -37 -4z" />
    <path d="M8713 1933 c26 -2 67 -2 90 0 23 2 2 3 -48 3 -49 0 -68 -1 -42 -3z" />
    <path d="M9448 1933 c23 -2 59 -2 80 0 20 2 1 4 -43 4 -44 0 -61 -2 -37 -4z" />
    <path d="M10243 1933 c64 -2 170 -2 235 0 64 1 11 3 -118 3 -129 0 -182 -2
-117 -3z" />
    <path d="M11083 1933 c26 -2 68 -2 95 0 26 2 4 3 -48 3 -52 0 -74 -1 -47 -3z" />
    <path d="M11993 1933 c26 -2 68 -2 95 0 26 2 4 3 -48 3 -52 0 -74 -1 -47 -3z" />
    <path d="M12598 1933 c17 -2 47 -2 65 0 17 2 3 4 -33 4 -36 0 -50 -2 -32 -4z" />
    <path d="M13463 1933 c131 -2 343 -2 470 0 128 1 21 2 -238 2 -258 0 -363 -1
-232 -2z" />
    <path d="M14468 1933 c23 -2 59 -2 80 0 20 2 1 4 -43 4 -44 0 -61 -2 -37 -4z" />
    <path d="M15263 1933 c64 -2 170 -2 235 0 64 1 11 3 -118 3 -129 0 -182 -2
-117 -3z" />
    <path d="M16283 1933 c26 -2 67 -2 90 0 23 2 2 3 -48 3 -49 0 -68 -1 -42 -3z" />
    <path d="M17018 1933 c23 -2 59 -2 80 0 20 2 1 4 -43 4 -44 0 -61 -2 -37 -4z" />
    <path d="M18023 1933 c104 -2 270 -2 370 0 100 1 16 2 -188 2 -203 0 -285 -1
-182 -2z" />
    <path d="M19390 1933 c264 -7 488 -7 483 0 -2 4 -136 6 -296 5 -161 -1 -245
-4 -187 -5z" />
    <path d="M20087 1933 c-4 -3 -7 -11 -7 -17 l0 -11 8 12 8 12 89 4 90 3 -91 2
c-50 1 -94 -1 -97 -5z" />
    <path d="M20963 1933 c26 -2 67 -2 90 0 23 2 2 3 -48 3 -49 0 -68 -1 -42 -3z" />
    <path d="M21648 1933 c68 -2 176 -2 240 0 64 1 9 3 -123 3 -132 0 -185 -2
-117 -3z" />
    <path d="M22673 1933 c26 -2 67 -2 90 0 23 2 2 3 -48 3 -49 0 -68 -1 -42 -3z" />
    <path d="M23408 1933 c23 -2 59 -2 80 0 20 2 1 4 -43 4 -44 0 -61 -2 -37 -4z" />
    <path d="M23993 1933 c87 -2 227 -2 310 0 84 1 13 3 -158 3 -170 0 -239 -2
-152 -3z" />
    <path d="M10653 1923 c4 -3 10 -3 14 0 3 4 0 7 -7 7 -7 0 -10 -3 -7 -7z" />
    <path d="M19213 1923 c4 -3 10 -3 14 0 3 4 0 7 -7 7 -7 0 -10 -3 -7 -7z" />
    <path d="M21453 1923 c4 -3 10 -3 14 0 3 4 0 7 -7 7 -7 0 -10 -3 -7 -7z" />
    <path d="M22063 1923 c4 -3 10 -3 14 0 3 4 0 7 -7 7 -7 0 -10 -3 -7 -7z" />
    <path d="M6845 1530 c0 -217 1 -306 2 -197 2 108 2 286 0 395 -1 108 -2 19 -2
-198z" />
    <path d="M7025 1530 c0 -217 1 -306 2 -197 2 108 2 286 0 395 -1 108 -2 19 -2
-198z" />
    <path d="M14415 1530 c0 -217 1 -306 2 -197 2 108 2 286 0 395 -1 108 -2 19
-2 -198z" />
    <path d="M17145 1565 c0 -198 1 -280 2 -183 2 97 2 259 0 360 -1 101 -2 21 -2
-177z" />
    <path d="M17825 1530 c0 -217 1 -306 2 -197 2 108 2 286 0 395 -1 108 -2 19
-2 -198z" />
    <path d="M23354 1610 c0 -173 2 -244 3 -157 2 86 2 228 0 315 -1 86 -3 15 -3
-158z" />
    <path d="M14595 1530 c0 -212 1 -298 2 -193 2 106 2 280 0 385 -1 106 -2 20
-2 -192z" />
    <path d="M22185 1870 c3 -5 8 -10 11 -10 3 0 2 5 -1 10 -3 6 -8 10 -11 10 -3
0 -2 -4 1 -10z" />
    <path d="M16160 1860 c0 -7 3 -10 7 -7 3 4 3 10 0 14 -4 3 -7 0 -7 -7z" />
    <path d="M9904 1848 l-7 -11 11 7 c12 7 16 16 8 16 -3 0 -8 -5 -12 -12z" />
    <path d="M22915 1830 c3 -5 8 -10 11 -10 3 0 2 5 -1 10 -3 6 -8 10 -11 10 -3
0 -2 -4 1 -10z" />
    <path d="M974 1788 l-7 -11 11 7 c12 7 16 16 8 16 -3 0 -8 -5 -12 -12z" />
    <path d="M9870 1790 c0 -7 3 -10 7 -7 3 4 3 10 0 14 -4 3 -7 0 -7 -7z" />
    <path d="M18741 1784 l1 -19 5 13 c3 7 2 16 -1 19 -3 4 -6 -2 -5 -13z" />
    <path d="M12054 1778 l-7 -11 11 7 c7 4 12 9 12 12 0 8 -9 4 -16 -8z" />
    <path d="M12414 1758 l-7 -11 11 7 c12 7 16 16 8 16 -3 0 -8 -5 -12 -12z" />
    <path d="M18004 1685 c0 -49 1 -71 3 -48 2 23 2 64 0 90 -2 26 -3 8 -3 -42z" />
    <path d="M7494 1450 c0 -173 2 -244 3 -157 2 86 2 228 0 315 -1 86 -3 15 -3
-158z" />
    <path d="M7525 1750 c3 -5 8 -10 11 -10 3 0 2 5 -1 10 -3 6 -8 10 -11 10 -3 0
-2 -4 1 -10z" />
    <path d="M22724 1450 c0 -173 2 -244 3 -157 2 86 2 228 0 315 -1 86 -3 15 -3
-158z" />
    <path d="M19020 1740 c0 -7 3 -10 7 -7 3 4 3 10 0 14 -4 3 -7 0 -7 -7z" />
    <path d="M10850 1730 c0 -7 3 -10 7 -7 3 4 3 10 0 14 -4 3 -7 0 -7 -7z" />
    <path d="M19204 1718 l-7 -11 11 7 c7 4 12 9 12 12 0 8 -9 4 -16 -8z" />
    <path d="M20944 1718 l-7 -11 11 7 c7 4 12 9 12 12 0 8 -9 4 -16 -8z" />
    <path d="M16405 1710 c3 -5 8 -10 11 -10 3 0 2 5 -1 10 -3 6 -8 10 -11 10 -3
0 -2 -4 1 -10z" />
    <path d="M18572 1690 c0 -19 2 -27 5 -17 2 9 2 25 0 35 -3 9 -5 1 -5 -18z" />
    <path d="M21260 1710 c0 -7 3 -10 7 -7 3 4 3 10 0 14 -4 3 -7 0 -7 -7z" />
    <path d="M22260 1710 c0 -7 3 -10 7 -7 3 4 3 10 0 14 -4 3 -7 0 -7 -7z" />
    <path d="M9851 1694 l1 -19 5 13 c3 7 2 16 -1 19 -3 4 -6 -2 -5 -13z" />
    <path d="M14872 1665 l0 -30 5 18 c2 9 2 23 0 30 -3 6 -5 -1 -5 -18z" />
    <path d="M10030 1670 c0 -7 3 -10 7 -7 3 4 3 10 0 14 -4 3 -7 0 -7 -7z" />
    <path d="M19014 1530 c0 -85 2 -120 3 -77 2 42 2 112 0 155 -1 42 -3 7 -3 -78z" />
    <path d="M24560 1670 c0 -7 3 -10 7 -7 3 4 3 10 0 14 -4 3 -7 0 -7 -7z" />
    <path d="M15051 1654 l1 -19 5 13 c3 7 2 16 -1 19 -3 4 -6 -2 -5 -13z" />
    <path d="M18740 1660 c0 -7 3 -10 7 -7 3 4 3 10 0 14 -4 3 -7 0 -7 -7z" />
    <path d="M24754 1530 c0 -80 2 -112 3 -72 2 39 2 105 0 145 -1 39 -3 7 -3 -73z" />
    <path d="M15884 1535 c0 -66 1 -92 3 -57 2 34 2 88 0 120 -2 31 -3 3 -3 -63z" />
    <path d="M20295 1640 c3 -5 8 -10 11 -10 3 0 2 5 -1 10 -3 6 -8 10 -11 10 -3
0 -2 -4 1 -10z" />
    <path d="M24572 1630 c0 -14 2 -19 5 -12 2 6 2 18 0 25 -3 6 -5 1 -5 -13z" />
    <path d="M15704 1535 c0 -60 1 -84 3 -52 2 32 2 81 0 110 -2 29 -3 3 -3 -58z" />
    <path d="M7855 1610 c3 -5 8 -10 11 -10 3 0 2 5 -1 10 -3 6 -8 10 -11 10 -3 0
-2 -4 1 -10z" />
    <path d="M1125 1600 c3 -5 8 -10 11 -10 3 0 2 5 -1 10 -3 6 -8 10 -11 10 -3 0
-2 -4 1 -10z" />
    <path d="M4724 1598 l-7 -11 11 7 c7 4 12 9 12 12 0 8 -9 4 -16 -8z" />
    <path d="M18503 1603 c4 -3 10 -3 14 0 3 4 0 7 -7 7 -7 0 -10 -3 -7 -7z" />
    <path d="M22885 1580 c3 -5 8 -10 11 -10 3 0 2 5 -1 10 -3 6 -8 10 -11 10 -3
0 -2 -4 1 -10z" />
    <path d="M20375 1530 c3 -5 8 -10 11 -10 3 0 2 5 -1 10 -3 6 -8 10 -11 10 -3
0 -2 -4 1 -10z" />
    <path d="M8975 1520 c3 -5 8 -10 11 -10 3 0 2 5 -1 10 -3 6 -8 10 -11 10 -3 0
-2 -4 1 -10z" />
    <path d="M16775 1510 c3 -5 8 -10 11 -10 3 0 2 5 -1 10 -3 6 -8 10 -11 10 -3
0 -2 -4 1 -10z" />
    <path d="M7935 1500 c3 -5 8 -10 11 -10 3 0 2 5 -1 10 -3 6 -8 10 -11 10 -3 0
-2 -4 1 -10z" />
    <path d="M7725 1490 c3 -5 8 -10 11 -10 3 0 2 5 -1 10 -3 6 -8 10 -11 10 -3 0
-2 -4 1 -10z" />
    <path d="M20415 1480 c3 -5 8 -10 11 -10 3 0 2 5 -1 10 -3 6 -8 10 -11 10 -3
0 -2 -4 1 -10z" />
    <path d="M16815 1460 c3 -5 8 -10 11 -10 3 0 2 5 -1 10 -3 6 -8 10 -11 10 -3
0 -2 -4 1 -10z" />
    <path d="M18004 1380 c0 -52 1 -74 3 -47 2 26 2 68 0 95 -2 26 -3 4 -3 -48z" />
    <path d="M19352 1463 c92 -2 245 -2 340 0 95 1 20 3 -167 3 -187 0 -265 -2
-173 -3z" />
    <path d="M16605 1450 c3 -5 8 -10 11 -10 3 0 2 5 -1 10 -3 6 -8 10 -11 10 -3
0 -2 -4 1 -10z" />
    <path d="M24572 1440 c0 -14 2 -19 5 -12 2 6 2 18 0 25 -3 6 -5 1 -5 -13z" />
    <path d="M15052 1410 c0 -14 2 -19 5 -12 2 6 2 18 0 25 -3 6 -5 1 -5 -13z" />
    <path d="M1455 1410 c3 -5 8 -10 11 -10 3 0 2 5 -1 10 -3 6 -8 10 -11 10 -3 0
-2 -4 1 -10z" />
    <path d="M14872 1395 l0 -30 5 18 c2 9 2 23 0 30 -3 6 -5 -1 -5 -18z" />
    <path d="M18573 1380 c0 -25 2 -35 4 -22 2 12 2 32 0 45 -2 12 -4 2 -4 -23z" />
    <path d="M16855 1400 c3 -5 8 -10 11 -10 3 0 2 5 -1 10 -3 6 -8 10 -11 10 -3
0 -2 -4 1 -10z" />
    <path d="M10030 1390 c0 -7 3 -10 7 -7 3 4 3 10 0 14 -4 3 -7 0 -7 -7z" />
    <path d="M21440 1380 c0 -7 3 -10 7 -7 3 4 3 10 0 14 -4 3 -7 0 -7 -7z" />
    <path d="M9851 1364 l1 -19 5 13 c3 7 2 16 -1 19 -3 4 -6 -2 -5 -13z" />
    <path d="M11525 1370 c3 -5 8 -10 11 -10 3 0 2 5 -1 10 -3 6 -8 10 -11 10 -3
0 -2 -4 1 -10z" />
    <path d="M7835 1350 c3 -5 8 -10 11 -10 3 0 2 5 -1 10 -3 6 -8 10 -11 10 -3 0
-2 -4 1 -10z" />
    <path d="M21260 1350 c0 -7 3 -10 7 -7 3 4 3 10 0 14 -4 3 -7 0 -7 -7z" />
    <path d="M22260 1350 c0 -7 3 -10 7 -7 3 4 3 10 0 14 -4 3 -7 0 -7 -7z" />
    <path d="M10850 1330 c0 -7 3 -10 7 -7 3 4 3 10 0 14 -4 3 -7 0 -7 -7z" />
    <path d="M19020 1320 c0 -7 3 -10 7 -7 3 4 3 10 0 14 -4 3 -7 0 -7 -7z" />
    <path d="M18554 1308 l-7 -11 11 7 c7 4 12 9 12 12 0 8 -9 4 -16 -8z" />
    <path d="M10113 1293 c4 -3 10 -3 14 0 3 4 0 7 -7 7 -7 0 -10 -3 -7 -7z" />
    <path d="M21523 1293 c4 -3 10 -3 14 0 3 4 0 7 -7 7 -7 0 -10 -3 -7 -7z" />
    <path d="M21993 1293 c4 -3 10 -3 14 0 3 4 0 7 -7 7 -7 0 -10 -3 -7 -7z" />
    <path d="M23125 1270 c3 -5 8 -10 11 -10 3 0 2 5 -1 10 -3 6 -8 10 -11 10 -3
0 -2 -4 1 -10z" />
    <path d="M22234 1258 l-7 -11 11 7 c7 4 12 9 12 12 0 8 -9 4 -16 -8z" />
    <path d="M14915 1230 c3 -5 8 -10 11 -10 3 0 2 5 -1 10 -3 6 -8 10 -11 10 -3
0 -2 -4 1 -10z" />
    <path d="M10804 1218 l-7 -11 11 7 c12 7 16 16 8 16 -3 0 -8 -5 -12 -12z" />
    <path d="M8290 1210 c0 -7 3 -10 7 -7 3 4 3 10 0 14 -4 3 -7 0 -7 -7z" />
    <path d="M23195 1180 c3 -5 8 -10 11 -10 3 0 2 5 -1 10 -3 6 -8 10 -11 10 -3
0 -2 -4 1 -10z" />
    <path d="M9554 1168 l-7 -11 11 7 c12 7 16 16 8 16 -3 0 -8 -5 -12 -12z" />
    <path d="M11450 1166 c0 -2 8 -10 18 -17 l17 -14 -14 18 c-13 16 -21 21 -21
13z" />
    <path d="M9265 1150 c3 -5 8 -10 11 -10 3 0 2 5 -1 10 -3 6 -8 10 -11 10 -3 0
-2 -4 1 -10z" />
    <path d="M17114 1148 l-7 -11 11 7 c12 7 16 16 8 16 -3 0 -8 -5 -12 -12z" />
    <path d="M10653 1133 c4 -3 10 -3 14 0 3 4 0 7 -7 7 -7 0 -10 -3 -7 -7z" />
    <path d="M15673 1133 c4 -3 10 -3 14 0 3 4 0 7 -7 7 -7 0 -10 -3 -7 -7z" />
    <path d="M19213 1133 c4 -3 10 -3 14 0 3 4 0 7 -7 7 -7 0 -10 -3 -7 -7z" />
    <path d="M21453 1133 c4 -3 10 -3 14 0 3 4 0 7 -7 7 -7 0 -10 -3 -7 -7z" />
    <path d="M22063 1133 c4 -3 10 -3 14 0 3 4 0 7 -7 7 -7 0 -10 -3 -7 -7z" />
    <path d="M24513 1133 c4 -3 10 -3 14 0 3 4 0 7 -7 7 -7 0 -10 -3 -7 -7z" />
    <path d="M6898 1123 c23 -2 59 -2 80 0 20 2 1 4 -43 4 -44 0 -61 -2 -37 -4z" />
    <path d="M7368 1123 c23 -2 59 -2 80 0 20 2 1 4 -43 4 -44 0 -61 -2 -37 -4z" />
    <path d="M8098 1123 c23 -2 61 -2 85 0 23 2 4 4 -43 4 -47 0 -66 -2 -42 -4z" />
    <path d="M8643 1123 c20 -2 54 -2 75 0 20 2 3 4 -38 4 -41 0 -58 -2 -37 -4z" />
    <path d="M9368 1123 c23 -2 61 -2 85 0 23 2 4 4 -43 4 -47 0 -66 -2 -42 -4z" />
    <path d="M10248 1123 c61 -2 163 -2 225 0 61 1 11 3 -113 3 -124 0 -174 -2
-112 -3z" />
    <path d="M11563 1123 c15 -2 39 -2 55 0 15 2 2 4 -28 4 -30 0 -43 -2 -27 -4z" />
    <path d="M12143 1123 c26 -2 67 -2 90 0 23 2 2 3 -48 3 -49 0 -68 -1 -42 -3z" />
    <path d="M13043 1123 c26 -2 67 -2 90 0 23 2 2 3 -48 3 -49 0 -68 -1 -42 -3z" />
    <path d="M13658 1123 c23 -2 59 -2 80 0 20 2 1 4 -43 4 -44 0 -61 -2 -37 -4z" />
    <path d="M14468 1123 c23 -2 59 -2 80 0 20 2 1 4 -43 4 -44 0 -61 -2 -37 -4z" />
    <path d="M15268 1123 c61 -2 163 -2 225 0 61 1 11 3 -113 3 -124 0 -174 -2
-112 -3z" />
    <path d="M16213 1123 c20 -2 54 -2 75 0 20 2 3 4 -38 4 -41 0 -58 -2 -37 -4z" />
    <path d="M16948 1123 c23 -2 59 -2 80 0 20 2 1 4 -43 4 -44 0 -61 -2 -37 -4z" />
    <path d="M18033 1123 c104 -2 270 -2 370 0 100 1 16 2 -188 2 -203 0 -285 -1
-182 -2z" />
    <path d="M19438 1123 c78 -2 206 -2 285 0 78 1 14 3 -143 3 -157 0 -221 -2
-142 -3z" />
    <path d="M20558 1123 c23 -2 59 -2 80 0 20 2 1 4 -43 4 -44 0 -61 -2 -37 -4z" />
    <path d="M21653 1123 c65 -2 168 -2 230 0 62 1 9 3 -118 3 -126 0 -177 -2
-112 -3z" />
    <path d="M22598 1123 c23 -2 59 -2 80 0 20 2 1 4 -43 4 -44 0 -61 -2 -37 -4z" />
    <path d="M23328 1123 c23 -2 61 -2 85 0 23 2 4 4 -43 4 -47 0 -66 -2 -42 -4z" />
    <path d="M23988 1123 c83 -2 221 -2 305 0 83 1 15 3 -153 3 -168 0 -236 -2
-152 -3z" />
    <path d="M2755 660 c3 -5 8 -10 11 -10 3 0 2 5 -1 10 -3 6 -8 10 -11 10 -3 0
-2 -4 1 -10z" />
    <path d="M3094 658 l-7 -11 11 7 c12 7 16 16 8 16 -3 0 -8 -5 -12 -12z" />
    <path d="M2923 563 c4 -3 10 -3 14 0 3 4 0 7 -7 7 -7 0 -10 -3 -7 -7z" />
  </g>
  <g transform="translate(0.000000,700.000000) scale(0.100000,-0.100000)" fill="#88b7e3" stroke="none">
    <path d="M895 5260 c0 -652 1 -918 2 -593 2 326 2 860 0 1185 -1 326 -2 60 -2
-592z" />
    <path d="M1075 6330 c3 -5 8 -10 11 -10 3 0 2 5 -1 10 -3 6 -8 10 -11 10 -3 0
-2 -4 1 -10z" />
    <path d="M1405 6140 c3 -5 8 -10 11 -10 3 0 2 5 -1 10 -3 6 -8 10 -11 10 -3 0
-2 -4 1 -10z" />
    <path d="M1735 5950 c3 -5 8 -10 11 -10 3 0 2 5 -1 10 -3 6 -8 10 -11 10 -3 0
-2 -4 1 -10z" />
    <path d="M2705 5390 c3 -5 8 -10 11 -10 3 0 2 5 -1 10 -3 6 -8 10 -11 10 -3 0
-2 -4 1 -10z" />
    <path d="M16383 4593 c9 -2 25 -2 35 0 9 3 1 5 -18 5 -19 0 -27 -2 -17 -5z" />
    <path d="M16763 4593 c9 -2 25 -2 35 0 9 3 1 5 -18 5 -19 0 -27 -2 -17 -5z" />
    <path d="M19023 4593 c4 -3 10 -3 14 0 3 4 0 7 -7 7 -7 0 -10 -3 -7 -7z" />
    <path d="M19143 4593 c4 -3 10 -3 14 0 3 4 0 7 -7 7 -7 0 -10 -3 -7 -7z" />
    <path d="M16228 4583 c6 -2 18 -2 25 0 6 3 1 5 -13 5 -14 0 -19 -2 -12 -5z" />
    <path d="M16928 4583 c7 -3 16 -2 19 1 4 3 -2 6 -13 5 l-19 -1 13 -5z" />
    <path d="M16133 4573 c4 -3 10 -3 14 0 3 4 0 7 -7 7 -7 0 -10 -3 -7 -7z" />
    <path d="M17028 4573 c7 -3 16 -2 19 1 4 3 -2 6 -13 5 l-19 -1 13 -5z" />
    <path d="M6842 4248 l3 -323 2 317 3 318 343 3 342 2 -347 3 -348 2 2 -322z" />
    <path d="M8115 4563 c382 -7 703 -7 698 0 -2 4 -194 6 -426 5 -232 -1 -354 -4
-272 -5z" />
    <path d="M10827 4563 c-5 -7 304 -7 673 0 80 1 -38 4 -262 5 -224 1 -409 -1
-411 -5z" />
    <path d="M12525 4563 c1215 -7 2095 -7 2095 0 0 4 -575 6 -1277 5 -703 -2
-1071 -4 -818 -5z" />
    <path d="M16053 4563 c4 -3 10 -3 14 0 3 4 0 7 -7 7 -7 0 -10 -3 -7 -7z" />
    <path d="M17103 4563 c4 -3 10 -3 14 0 3 4 0 7 -7 7 -7 0 -10 -3 -7 -7z" />
    <path d="M20712 4423 l2 -148 3 143 4 142 304 0 304 0 4 -137 3 -138 2 143 2
142 -315 0 -315 0 2 -147z" />
    <path d="M22357 4563 c-5 -7 400 -7 888 0 105 1 -52 3 -347 5 -295 1 -539 -1
-541 -5z" />
    <path d="M15993 4553 c4 -3 10 -3 14 0 3 4 0 7 -7 7 -7 0 -10 -3 -7 -7z" />
    <path d="M23588 4553 c7 -3 16 -2 19 1 4 3 -2 6 -13 5 l-19 -1 13 -5z" />
    <path d="M17223 4543 c4 -3 10 -3 14 0 3 4 0 7 -7 7 -7 0 -10 -3 -7 -7z" />
    <path d="M23673 4543 c4 -3 10 -3 14 0 3 4 0 7 -7 7 -7 0 -10 -3 -7 -7z" />
    <path d="M17273 4533 c4 -3 10 -3 14 0 3 4 0 7 -7 7 -7 0 -10 -3 -7 -7z" />
    <path d="M15803 4513 c4 -3 10 -3 14 0 3 4 0 7 -7 7 -7 0 -10 -3 -7 -7z" />
    <path d="M15584 4438 l-7 -11 11 7 c12 7 16 16 8 16 -3 0 -8 -5 -12 -12z" />
    <path d="M14504 4418 l-7 -11 11 7 c12 7 16 16 8 16 -3 0 -8 -5 -12 -12z" />
    <path d="M19440 4416 c0 -2 8 -10 18 -17 l17 -14 -14 18 c-13 16 -21 21 -21
13z" />
    <path d="M18721 4244 l1 -19 5 13 c3 7 2 16 -1 19 -3 4 -6 -2 -5 -13z" />
  </g>
  <g transform="translate(0.000000,700.000000) scale(0.100000,-0.100000)" fill="#80a6d1" stroke="none">
    <path d="M1513 6073 c4 -3 10 -3 14 0 3 4 0 7 -7 7 -7 0 -10 -3 -7 -7z" />
    <path d="M2413 5553 c4 -3 10 -3 14 0 3 4 0 7 -7 7 -7 0 -10 -3 -7 -7z" />
    <path d="M3035 5200 c3 -5 8 -10 11 -10 3 0 2 5 -1 10 -3 6 -8 10 -11 10 -3 0
-2 -4 1 -10z" />
    <path d="M3365 5010 c3 -5 8 -10 11 -10 3 0 2 5 -1 10 -3 6 -8 10 -11 10 -3 0
-2 -4 1 -10z" />
    <path d="M3695 4820 c3 -5 8 -10 11 -10 3 0 2 5 -1 10 -3 6 -8 10 -11 10 -3 0
-2 -4 1 -10z" />
    <path d="M4025 4630 c3 -5 8 -10 11 -10 3 0 2 5 -1 10 -3 6 -8 10 -11 10 -3 0
-2 -4 1 -10z" />
    <path d="M21335 3490 c0 -448 1 -632 2 -408 2 225 2 591 0 815 -1 225 -2 41
-2 -407z" />
    <path d="M20708 3785 c-2 -278 0 -505 5 -505 4 0 7 227 7 505 0 278 -2 505 -5
505 -2 0 -6 -227 -7 -505z" />
    <path d="M24335 4280 c3 -5 8 -10 11 -10 3 0 2 5 -1 10 -3 6 -8 10 -11 10 -3
0 -2 -4 1 -10z" />
    <path d="M18722 4220 c0 -14 2 -19 5 -12 2 6 2 18 0 25 -3 6 -5 1 -5 -13z" />
    <path d="M24390 4236 c0 -2 8 -10 18 -17 l17 -14 -14 18 c-13 16 -21 21 -21
13z" />
    <path d="M24450 4176 c0 -2 8 -10 18 -17 l17 -14 -14 18 c-13 16 -21 21 -21
13z" />
    <path d="M17995 4140 c3 -5 8 -10 11 -10 3 0 2 5 -1 10 -3 6 -8 10 -11 10 -3
0 -2 -4 1 -10z" />
    <path d="M14264 4108 l-7 -11 11 7 c12 7 16 16 8 16 -3 0 -8 -5 -12 -12z" />
    <path d="M14214 4038 l-7 -11 11 7 c12 7 16 16 8 16 -3 0 -8 -5 -12 -12z" />
    <path d="M24565 4030 c3 -5 8 -10 11 -10 3 0 2 5 -1 10 -3 6 -8 10 -11 10 -3
0 -2 -4 1 -10z" />
    <path d="M16508 4023 c45 -2 119 -2 165 0 45 1 8 3 -83 3 -91 0 -128 -2 -82
-3z" />
    <path d="M14184 4008 l-7 -11 11 7 c12 7 16 16 8 16 -3 0 -8 -5 -12 -12z" />
    <path d="M16238 4013 c6 -2 18 -2 25 0 6 3 1 5 -13 5 -14 0 -19 -2 -12 -5z" />
    <path d="M16918 4013 c7 -3 16 -2 19 1 4 3 -2 6 -13 5 l-19 -1 13 -5z" />
    <path d="M16133 4003 c4 -3 10 -3 14 0 3 4 0 7 -7 7 -7 0 -10 -3 -7 -7z" />
    <path d="M17023 4003 c4 -3 10 -3 14 0 3 4 0 7 -7 7 -7 0 -10 -3 -7 -7z" />
    <path d="M9195 3990 c3 -5 8 -10 11 -10 3 0 2 5 -1 10 -3 6 -8 10 -11 10 -3 0
-2 -4 1 -10z" />
    <path d="M23498 3983 c7 -3 16 -2 19 1 4 3 -2 6 -13 5 l-19 -1 13 -5z" />
    <path d="M23563 3973 c4 -3 10 -3 14 0 3 4 0 7 -7 7 -7 0 -10 -3 -7 -7z" />
    <path d="M6845 3155 c0 -434 1 -611 2 -392 2 219 2 575 0 790 -1 216 -2 37 -2
-398z" />
    <path d="M24650 3870 c0 -7 3 -10 7 -7 3 4 3 10 0 14 -4 3 -7 0 -7 -7z" />
    <path d="M9375 3730 c3 -5 8 -10 11 -10 3 0 2 5 -1 10 -3 6 -8 10 -11 10 -3 0
-2 -4 1 -10z" />
    <path d="M18170 3730 c0 -7 3 -10 7 -7 3 4 3 10 0 14 -4 3 -7 0 -7 -7z" />
    <path d="M24700 3710 c0 -7 3 -10 7 -7 3 4 3 10 0 14 -4 3 -7 0 -7 -7z" />
    <path d="M14990 3680 c0 -7 3 -10 7 -7 3 4 3 10 0 14 -4 3 -7 0 -7 -7z" />
    <path d="M15680 3680 c0 -7 3 -10 7 -7 3 4 3 10 0 14 -4 3 -7 0 -7 -7z" />
    <path d="M18181 3664 l1 -19 5 13 c3 7 2 16 -1 19 -3 4 -6 -2 -5 -13z" />
    <path d="M10984 3648 l-7 -11 11 7 c12 7 16 16 8 16 -3 0 -8 -5 -12 -12z" />
    <path d="M24710 3650 c0 -7 3 -10 7 -7 3 4 3 10 0 14 -4 3 -7 0 -7 -7z" />
    <path d="M14982 3590 c0 -14 2 -19 5 -12 2 6 2 18 0 25 -3 6 -5 1 -5 -13z" />
    <path d="M15661 3564 l1 -19 5 13 c3 7 2 16 -1 19 -3 4 -6 -2 -5 -13z" />
    <path d="M18192 3555 l0 -30 5 18 c2 9 2 23 0 30 -3 6 -5 -1 -5 -18z" />
    <path d="M24722 3560 c0 -14 2 -19 5 -12 2 6 2 18 0 25 -3 6 -5 1 -5 -13z" />
    <path d="M8665 3560 c3 -5 8 -10 11 -10 3 0 2 5 -1 10 -3 6 -8 10 -11 10 -3 0
-2 -4 1 -10z" />
    <path d="M17512 3525 l0 -30 5 18 c2 9 2 23 0 30 -3 6 -5 -1 -5 -18z" />
    <path d="M24053 3460 c0 -25 2 -35 4 -22 2 12 2 32 0 45 -2 12 -4 2 -4 -23z" />
    <path d="M24722 3415 l0 -30 5 18 c2 9 2 23 0 30 -3 6 -5 -1 -5 -18z" />
    <path d="M17512 3405 l0 -30 5 18 c2 9 2 23 0 30 -3 6 -5 -1 -5 -18z" />
    <path d="M10804 3398 l-7 -11 11 7 c12 7 16 16 8 16 -3 0 -8 -5 -12 -12z" />
    <path d="M18192 3375 l0 -30 5 18 c2 9 2 23 0 30 -3 6 -5 -1 -5 -18z" />
    <path d="M15661 3374 l1 -19 5 13 c3 7 2 16 -1 19 -3 4 -6 -2 -5 -13z" />
    <path d="M14981 3344 l1 -19 5 13 c3 7 2 16 -1 19 -3 4 -6 -2 -5 -13z" />
    <path d="M24710 3320 c0 -7 3 -10 7 -7 3 4 3 10 0 14 -4 3 -7 0 -7 -7z" />
    <path d="M17500 3310 c0 -7 3 -10 7 -7 3 4 3 10 0 14 -4 3 -7 0 -7 -7z" />
    <path d="M14154 3298 l-7 -11 11 7 c12 7 16 16 8 16 -3 0 -8 -5 -12 -12z" />
    <path d="M19740 3296 c0 -2 8 -10 18 -17 l17 -14 -14 18 c-13 16 -21 21 -21
13z" />
    <path d="M9914 3278 l-7 -11 11 7 c7 4 12 9 12 12 0 8 -9 4 -16 -8z" />
    <path d="M18180 3260 c0 -7 3 -10 7 -7 3 4 3 10 0 14 -4 3 -7 0 -7 -7z" />
    <path d="M24700 3260 c0 -7 3 -10 7 -7 3 4 3 10 0 14 -4 3 -7 0 -7 -7z" />
    <path d="M14990 3250 c0 -7 3 -10 7 -7 3 4 3 10 0 14 -4 3 -7 0 -7 -7z" />
    <path d="M18170 3200 c0 -7 3 -10 7 -7 3 4 3 10 0 14 -4 3 -7 0 -7 -7z" />
    <path d="M15000 3190 c0 -7 3 -10 7 -7 3 4 3 10 0 14 -4 3 -7 0 -7 -7z" />
    <path d="M9793 3113 c4 -3 10 -3 14 0 3 4 0 7 -7 7 -7 0 -10 -3 -7 -7z" />
    <path d="M19940 3116 c0 -2 8 -10 18 -17 l17 -14 -14 18 c-13 16 -21 21 -21
13z" />
    <path d="M9025 3040 c3 -5 8 -10 11 -10 3 0 2 5 -1 10 -3 6 -8 10 -11 10 -3 0
-2 -4 1 -10z" />
    <path d="M23663 2973 c4 -3 10 -3 14 0 3 4 0 7 -7 7 -7 0 -10 -3 -7 -7z" />
    <path d="M23523 2943 c4 -3 10 -3 14 0 3 4 0 7 -7 7 -7 0 -10 -3 -7 -7z" />
    <path d="M13217 2933 c260 -2 686 -2 945 0 260 1 48 2 -472 2 -520 0 -732 -1
-473 -2z" />
    <path d="M16103 2933 c4 -3 10 -3 14 0 3 4 0 7 -7 7 -7 0 -10 -3 -7 -7z" />
    <path d="M17053 2933 c4 -3 10 -3 14 0 3 4 0 7 -7 7 -7 0 -10 -3 -7 -7z" />
    <path d="M22818 2933 c111 -2 293 -2 405 0 111 1 20 2 -203 2 -223 0 -314 -1
-202 -2z" />
    <path d="M16143 2923 c4 -3 10 -3 14 0 3 4 0 7 -7 7 -7 0 -10 -3 -7 -7z" />
    <path d="M17013 2923 c4 -3 10 -3 14 0 3 4 0 7 -7 7 -7 0 -10 -3 -7 -7z" />
    <path d="M20155 2920 c3 -5 8 -10 11 -10 3 0 2 5 -1 10 -3 6 -8 10 -11 10 -3
0 -2 -4 1 -10z" />
    <path d="M14604 2908 l-7 -11 11 7 c12 7 16 16 8 16 -3 0 -8 -5 -12 -12z" />
    <path d="M16238 2913 c7 -3 16 -2 19 1 4 3 -2 6 -13 5 l-19 -1 13 -5z" />
    <path d="M16928 2913 c7 -3 16 -2 19 1 4 3 -2 6 -13 5 l-19 -1 13 -5z" />
    <path d="M16398 2903 c12 -2 32 -2 45 0 12 2 2 4 -23 4 -25 0 -35 -2 -22 -4z" />
    <path d="M16738 2903 c12 -2 32 -2 45 0 12 2 2 4 -23 4 -25 0 -35 -2 -22 -4z" />
    <path d="M10444 2888 l-7 -11 11 7 c12 7 16 16 8 16 -3 0 -8 -5 -12 -12z" />
    <path d="M24494 2838 l-7 -11 11 7 c7 4 12 9 12 12 0 8 -9 4 -16 -8z" />
    <path d="M14514 2798 l-7 -11 11 7 c12 7 16 16 8 16 -3 0 -8 -5 -12 -12z" />
    <path d="M15185 2780 c3 -5 8 -10 11 -10 3 0 2 5 -1 10 -3 6 -8 10 -11 10 -3
0 -2 -4 1 -10z" />
    <path d="M15310 2656 c0 -2 8 -10 18 -17 l17 -14 -14 18 c-13 16 -21 21 -21
13z" />
    <path d="M15465 2550 c3 -5 8 -10 11 -10 3 0 2 5 -1 10 -3 6 -8 10 -11 10 -3
0 -2 -4 1 -10z" />
    <path d="M15623 2473 c4 -3 10 -3 14 0 3 4 0 7 -7 7 -7 0 -10 -3 -7 -7z" />
    <path d="M10079 2433 l-14 -18 18 14 c16 13 21 21 13 21 -2 0 -10 -8 -17 -17z" />
    <path d="M15903 2393 c4 -3 10 -3 14 0 3 4 0 7 -7 7 -7 0 -10 -3 -7 -7z" />
    <path d="M17263 2393 c4 -3 10 -3 14 0 3 4 0 7 -7 7 -7 0 -10 -3 -7 -7z" />
    <path d="M23703 2393 c4 -3 10 -3 14 0 3 4 0 7 -7 7 -7 0 -10 -3 -7 -7z" />
    <path d="M15953 2383 c4 -3 10 -3 14 0 3 4 0 7 -7 7 -7 0 -10 -3 -7 -7z" />
    <path d="M23633 2383 c4 -3 10 -3 14 0 3 4 0 7 -7 7 -7 0 -10 -3 -7 -7z" />
    <path d="M16013 2373 c4 -3 10 -3 14 0 3 4 0 7 -7 7 -7 0 -10 -3 -7 -7z" />
    <path d="M17153 2373 c4 -3 10 -3 14 0 3 4 0 7 -7 7 -7 0 -10 -3 -7 -7z" />
    <path d="M23548 2373 c7 -3 16 -2 19 1 4 3 -2 6 -13 5 l-19 -1 13 -5z" />
    <path d="M9605 2360 c3 -5 8 -10 11 -10 3 0 2 5 -1 10 -3 6 -8 10 -11 10 -3 0
-2 -4 1 -10z" />
    <path d="M16073 2363 c4 -3 10 -3 14 0 3 4 0 7 -7 7 -7 0 -10 -3 -7 -7z" />
    <path d="M17083 2363 c4 -3 10 -3 14 0 3 4 0 7 -7 7 -7 0 -10 -3 -7 -7z" />
    <path d="M21114 2358 l-7 -11 11 7 c7 4 12 9 12 12 0 8 -9 4 -16 -8z" />
    <path d="M16113 2353 c4 -3 10 -3 14 0 3 4 0 7 -7 7 -7 0 -10 -3 -7 -7z" />
    <path d="M17048 2353 c7 -3 16 -2 19 1 4 3 -2 6 -13 5 l-19 -1 13 -5z" />
    <path d="M9913 2343 c4 -3 10 -3 14 0 3 4 0 7 -7 7 -7 0 -10 -3 -7 -7z" />
    <path d="M16208 2343 c7 -3 16 -2 19 1 4 3 -2 6 -13 5 l-19 -1 13 -5z" />
    <path d="M16948 2343 c7 -3 16 -2 19 1 4 3 -2 6 -13 5 l-19 -1 13 -5z" />
    <path d="M9693 2333 c4 -3 10 -3 14 0 3 4 0 7 -7 7 -7 0 -10 -3 -7 -7z" />
    <path d="M9863 2333 c4 -3 10 -3 14 0 3 4 0 7 -7 7 -7 0 -10 -3 -7 -7z" />
    <path d="M16343 2333 c9 -2 23 -2 30 0 6 3 -1 5 -18 5 l-30 0 18 -5z" />
    <path d="M16803 2333 c9 -2 23 -2 30 0 6 3 -1 5 -18 5 l-30 0 18 -5z" />
    <path d="M20883 2333 c4 -3 10 -3 14 0 3 4 0 7 -7 7 -7 0 -10 -3 -7 -7z" />
    <path d="M21033 2333 c4 -3 10 -3 14 0 3 4 0 7 -7 7 -7 0 -10 -3 -7 -7z" />
  </g>
  <g transform="translate(0.000000,700.000000) scale(0.100000,-0.100000)" fill="#c0d3e8" stroke="none">
    <path d="M2045 5770 c3 -5 8 -10 11 -10 3 0 2 5 -1 10 -3 6 -8 10 -11 10 -3 0
-2 -4 1 -10z" />
    <path d="M2375 5580 c3 -5 8 -10 11 -10 3 0 2 5 -1 10 -3 6 -8 10 -11 10 -3 0
-2 -4 1 -10z" />
    <path d="M3303 5043 c4 -3 10 -3 14 0 3 4 0 7 -7 7 -7 0 -10 -3 -7 -7z" />
    <path d="M18973 4583 c4 -3 10 -3 14 0 3 4 0 7 -7 7 -7 0 -10 -3 -7 -7z" />
    <path d="M14604 4548 l-7 -11 11 7 c12 7 16 16 8 16 -3 0 -8 -5 -12 -12z" />
    <path d="M7985 4540 c3 -5 8 -10 11 -10 3 0 2 5 -1 10 -3 6 -8 10 -11 10 -3 0
-2 -4 1 -10z" />
    <path d="M22324 4518 l-7 -11 11 7 c7 4 12 9 12 12 0 8 -9 4 -16 -8z" />
    <path d="M14574 4508 l-7 -11 11 7 c7 4 12 9 12 12 0 8 -9 4 -16 -8z" />
    <path d="M11584 4498 l-7 -11 11 7 c12 7 16 16 8 16 -3 0 -8 -5 -12 -12z" />
    <path d="M17393 4503 c4 -3 10 -3 14 0 3 4 0 7 -7 7 -7 0 -10 -3 -7 -7z" />
    <path d="M19340 4506 c0 -2 8 -10 18 -17 l17 -14 -14 18 c-13 16 -21 21 -21
13z" />
    <path d="M18804 4478 l-7 -11 11 7 c12 7 16 16 8 16 -3 0 -8 -5 -12 -12z" />
    <path d="M22294 4478 l-7 -11 11 7 c7 4 12 9 12 12 0 8 -9 4 -16 -8z" />
    <path d="M10754 4468 l-7 -11 11 7 c12 7 16 16 8 16 -3 0 -8 -5 -12 -12z" />
    <path d="M19390 4466 c0 -2 8 -10 18 -17 l17 -14 -14 18 c-13 16 -21 21 -21
13z" />
    <path d="M24023 4453 c4 -3 10 -3 14 0 3 4 0 7 -7 7 -7 0 -10 -3 -7 -7z" />
    <path d="M4373 4423 c4 -3 10 -3 14 0 3 4 0 7 -7 7 -7 0 -10 -3 -7 -7z" />
    <path d="M8065 4420 c3 -5 8 -10 11 -10 3 0 2 5 -1 10 -3 6 -8 10 -11 10 -3 0
-2 -4 1 -10z" />
    <path d="M19435 4420 c3 -5 8 -10 11 -10 3 0 2 5 -1 10 -3 6 -8 10 -11 10 -3
0 -2 -4 1 -10z" />
    <path d="M22234 4398 l-19 -23 23 19 c21 18 27 26 19 26 -2 0 -12 -10 -23 -22z" />
    <path d="M10694 4378 l-7 -11 11 7 c7 4 12 9 12 12 0 8 -9 4 -16 -8z" />
    <path d="M14464 4368 l-7 -11 11 7 c12 7 16 16 8 16 -3 0 -8 -5 -12 -12z" />
    <path d="M11484 4358 l-7 -11 11 7 c12 7 16 16 8 16 -3 0 -8 -5 -12 -12z" />
    <path d="M17755 4350 c3 -5 8 -10 11 -10 3 0 2 5 -1 10 -3 6 -8 10 -11 10 -3
0 -2 -4 1 -10z" />
    <path d="M22194 4348 l-7 -11 11 7 c7 4 12 9 12 12 0 8 -9 4 -16 -8z" />
    <path d="M8965 4330 c3 -5 8 -10 11 -10 3 0 2 5 -1 10 -3 6 -8 10 -11 10 -3 0
-2 -4 1 -10z" />
    <path d="M14434 4328 l-7 -11 11 7 c12 7 16 16 8 16 -3 0 -8 -5 -12 -12z" />
    <path d="M19530 4336 c0 -2 8 -10 18 -17 l17 -14 -14 18 c-13 16 -21 21 -21
13z" />
    <path d="M17805 4320 c3 -5 8 -10 11 -10 3 0 2 5 -1 10 -3 6 -8 10 -11 10 -3
0 -2 -4 1 -10z" />
    <path d="M24295 4310 c3 -5 8 -10 11 -10 3 0 2 5 -1 10 -3 6 -8 10 -11 10 -3
0 -2 -4 1 -10z" />
    <path d="M8985 4300 c3 -5 8 -10 11 -10 3 0 2 5 -1 10 -3 6 -8 10 -11 10 -3 0
-2 -4 1 -10z" />
    <path d="M15334 4298 l-7 -11 11 7 c12 7 16 16 8 16 -3 0 -8 -5 -12 -12z" />
    <path d="M11434 4288 l-7 -11 11 7 c12 7 16 16 8 16 -3 0 -8 -5 -12 -12z" />
    <path d="M17845 4290 c3 -5 8 -10 11 -10 3 0 2 5 -1 10 -3 6 -8 10 -11 10 -3
0 -2 -4 1 -10z" />
    <path d="M19620 4258 c41 -45 50 -53 50 -45 0 2 -21 23 -47 47 l-48 45 45 -47z" />
    <path d="M9005 4270 c3 -5 8 -10 11 -10 3 0 2 5 -1 10 -3 6 -8 10 -11 10 -3 0
-2 -4 1 -10z" />
    <path d="M10600 4250 c-6 -11 -8 -20 -6 -20 3 0 10 9 16 20 6 11 8 20 6 20 -3
0 -10 -9 -16 -20z" />
    <path d="M15274 4248 l-19 -23 23 19 c21 18 27 26 19 26 -2 0 -12 -10 -23 -22z" />
    <path d="M14366 4243 l-7 -18 12 12 c7 7 10 15 7 18 -3 3 -9 -2 -12 -12z" />
    <path d="M9025 4240 c3 -5 8 -10 11 -10 3 0 2 5 -1 10 -3 6 -8 10 -11 10 -3 0
-2 -4 1 -10z" />
    <path d="M22114 4238 l-7 -11 11 7 c7 4 12 9 12 12 0 8 -9 4 -16 -8z" />
    <path d="M8205 4220 c3 -5 8 -10 11 -10 3 0 2 5 -1 10 -3 6 -8 10 -11 10 -3 0
-2 -4 1 -10z" />
    <path d="M9055 4200 c3 -5 8 -10 11 -10 3 0 2 5 -1 10 -3 6 -8 10 -11 10 -3 0
-2 -4 1 -10z" />
    <path d="M11374 4198 l-7 -11 11 7 c7 4 12 9 12 12 0 8 -9 4 -16 -8z" />
    <path d="M15219 4193 l-14 -18 18 14 c16 13 21 21 13 21 -2 0 -10 -8 -17 -17z" />
    <path d="M22084 4198 l-7 -11 11 7 c7 4 12 9 12 12 0 8 -9 4 -16 -8z" />
    <path d="M14324 4188 l-7 -11 11 7 c12 7 16 16 8 16 -3 0 -8 -5 -12 -12z" />
    <path d="M9075 4170 c3 -5 8 -10 11 -10 3 0 2 5 -1 10 -3 6 -8 10 -11 10 -3 0
-2 -4 1 -10z" />
    <path d="M10544 4168 l-7 -11 11 7 c12 7 16 16 8 16 -3 0 -8 -5 -12 -12z" />
    <path d="M11339 4153 l-14 -18 18 14 c16 13 21 21 13 21 -2 0 -10 -8 -17 -17z" />
    <path d="M14294 4148 l-7 -11 11 7 c12 7 16 16 8 16 -3 0 -8 -5 -12 -12z" />
    <path d="M24475 4150 c3 -5 8 -10 11 -10 3 0 2 5 -1 10 -3 6 -8 10 -11 10 -3
0 -2 -4 1 -10z" />
    <path d="M9095 4140 c3 -5 8 -10 11 -10 3 0 2 5 -1 10 -3 6 -8 10 -11 10 -3 0
-2 -4 1 -10z" />
    <path d="M19795 4100 c10 -11 20 -20 23 -20 3 0 -3 9 -13 20 -10 11 -20 20
-23 20 -3 0 3 -9 13 -20z" />
    <path d="M15144 4098 l-7 -11 11 7 c12 7 16 16 8 16 -3 0 -8 -5 -12 -12z" />
    <path d="M24515 4100 c3 -5 8 -10 11 -10 3 0 2 5 -1 10 -3 6 -8 10 -11 10 -3
0 -2 -4 1 -10z" />
    <path d="M8290 4096 c0 -2 8 -10 18 -17 l17 -14 -14 18 c-13 16 -21 21 -21 13z" />
    <path d="M21994 4088 l-7 -11 11 7 c7 4 12 9 12 12 0 8 -9 4 -16 -8z" />
    <path d="M11284 4078 l-7 -11 11 7 c12 7 16 16 8 16 -3 0 -8 -5 -12 -12z" />
    <path d="M10474 4068 l-7 -11 11 7 c12 7 16 16 8 16 -3 0 -8 -5 -12 -12z" />
    <path d="M8325 4050 c3 -5 8 -10 11 -10 3 0 2 5 -1 10 -3 6 -8 10 -11 10 -3 0
-2 -4 1 -10z" />
    <path d="M19840 4056 c0 -2 8 -10 18 -17 l17 -14 -14 18 c-13 16 -21 21 -21
13z" />
    <path d="M24555 4040 c3 -5 8 -10 11 -10 3 0 2 5 -1 10 -3 6 -8 10 -11 10 -3
0 -2 -4 1 -10z" />
    <path d="M21954 4028 l-7 -11 11 7 c12 7 16 16 8 16 -3 0 -8 -5 -12 -12z" />
    <path d="M8345 4020 c3 -5 8 -10 11 -10 3 0 2 5 -1 10 -3 6 -8 10 -11 10 -3 0
-2 -4 1 -10z" />
    <path d="M11224 3988 l-7 -11 11 7 c12 7 16 16 8 16 -3 0 -8 -5 -12 -12z" />
    <path d="M9205 3980 c3 -5 8 -10 11 -10 3 0 2 5 -1 10 -3 6 -8 10 -11 10 -3 0
-2 -4 1 -10z" />
    <path d="M17173 3973 c4 -3 10 -3 14 0 3 4 0 7 -7 7 -7 0 -10 -3 -7 -7z" />
    <path d="M10394 3958 l-7 -11 11 7 c12 7 16 16 8 16 -3 0 -8 -5 -12 -12z" />
    <path d="M19995 3920 c10 -11 20 -20 23 -20 3 0 -3 9 -13 20 -10 11 -20 20
-23 20 -3 0 3 -9 13 -20z" />
    <path d="M8415 3920 c3 -5 8 -10 11 -10 3 0 2 5 -1 10 -3 6 -8 10 -11 10 -3 0
-2 -4 1 -10z" />
    <path d="M17345 3900 c3 -5 8 -10 11 -10 3 0 2 5 -1 10 -3 6 -8 10 -11 10 -3
0 -2 -4 1 -10z" />
    <path d="M8435 3890 c3 -5 8 -10 11 -10 3 0 2 5 -1 10 -3 6 -8 10 -11 10 -3 0
-2 -4 1 -10z" />
    <path d="M15789 3873 l-14 -18 18 14 c16 13 21 21 13 21 -2 0 -10 -8 -17 -17z" />
    <path d="M17395 3850 c10 -11 20 -20 23 -20 3 0 -3 9 -13 20 -10 11 -20 20
-23 20 -3 0 3 -9 13 -20z" />
    <path d="M20055 3860 c3 -5 8 -10 11 -10 3 0 2 5 -1 10 -3 6 -8 10 -11 10 -3
0 -2 -4 1 -10z" />
    <path d="M11124 3848 l-7 -11 11 7 c12 7 16 16 8 16 -3 0 -8 -5 -12 -12z" />
    <path d="M18150 3820 c0 -7 3 -10 7 -7 3 4 3 10 0 14 -4 3 -7 0 -7 -7z" />
    <path d="M20105 3820 c3 -5 8 -10 11 -10 3 0 2 5 -1 10 -3 6 -8 10 -11 10 -3
0 -2 -4 1 -10z" />
    <path d="M15734 3808 l-7 -11 11 7 c12 7 16 16 8 16 -3 0 -8 -5 -12 -12z" />
    <path d="M15010 3790 c0 -7 3 -10 7 -7 3 4 3 10 0 14 -4 3 -7 0 -7 -7z" />
    <path d="M11074 3778 l-7 -11 11 7 c12 7 16 16 8 16 -3 0 -8 -5 -12 -12z" />
    <path d="M18160 3780 c0 -7 3 -10 7 -7 3 4 3 10 0 14 -4 3 -7 0 -7 -7z" />
    <path d="M10244 3748 l-7 -11 11 7 c12 7 16 16 8 16 -3 0 -8 -5 -12 -12z" />
    <path d="M24690 3750 c0 -7 3 -10 7 -7 3 4 3 10 0 14 -4 3 -7 0 -7 -7z" />
    <path d="M9365 3740 c3 -5 8 -10 11 -10 3 0 2 5 -1 10 -3 6 -8 10 -11 10 -3 0
-2 -4 1 -10z" />
    <path d="M20190 3746 c0 -2 8 -10 18 -17 l17 -14 -14 18 c-13 16 -21 21 -21
13z" />
    <path d="M1513 3723 c4 -3 10 -3 14 0 3 4 0 7 -7 7 -7 0 -10 -3 -7 -7z" />
    <path d="M8555 3720 c3 -5 8 -10 11 -10 3 0 2 5 -1 10 -3 6 -8 10 -11 10 -3 0
-2 -4 1 -10z" />
    <path d="M14474 3708 l-7 -11 11 7 c7 4 12 9 12 12 0 8 -9 4 -16 -8z" />
    <path d="M8575 3690 c3 -5 8 -10 11 -10 3 0 2 5 -1 10 -3 6 -8 10 -11 10 -3 0
-2 -4 1 -10z" />
    <path d="M10184 3658 l-7 -11 11 7 c7 4 12 9 12 12 0 8 -9 4 -16 -8z" />
    <path d="M20290 3656 c0 -2 8 -10 18 -17 l17 -14 -14 18 c-13 16 -21 21 -21
13z" />
    <path d="M10974 3638 l-7 -11 11 7 c12 7 16 16 8 16 -3 0 -8 -5 -12 -12z" />
    <path d="M14424 3638 l-7 -11 11 7 c12 7 16 16 8 16 -3 0 -8 -5 -12 -12z" />
    <path d="M14374 3578 l-19 -23 23 19 c21 18 27 26 19 26 -2 0 -12 -10 -23 -22z" />
    <path d="M9475 3580 c3 -5 8 -10 11 -10 3 0 2 5 -1 10 -3 6 -8 10 -11 10 -3 0
-2 -4 1 -10z" />
    <path d="M8655 3570 c3 -5 8 -10 11 -10 3 0 2 5 -1 10 -3 6 -8 10 -11 10 -3 0
-2 -4 1 -10z" />
    <path d="M10924 3568 l-7 -11 11 7 c12 7 16 16 8 16 -3 0 -8 -5 -12 -12z" />
    <path d="M10114 3558 l-7 -11 11 7 c7 4 12 9 12 12 0 8 -9 4 -16 -8z" />
    <path d="M19440 3566 c0 -2 8 -10 18 -17 l17 -14 -14 18 c-13 16 -21 21 -21
13z" />
    <path d="M20390 3566 c0 -2 8 -10 18 -17 l17 -14 -14 18 c-13 16 -21 21 -21
13z" />
    <path d="M9495 3550 c3 -5 8 -10 11 -10 3 0 2 5 -1 10 -3 6 -8 10 -11 10 -3 0
-2 -4 1 -10z" />
    <path d="M8695 3520 c3 -5 8 -10 11 -10 3 0 2 5 -1 10 -3 6 -8 10 -11 10 -3 0
-2 -4 1 -10z" />
    <path d="M9515 3520 c3 -5 8 -10 11 -10 3 0 2 5 -1 10 -3 6 -8 10 -11 10 -3 0
-2 -4 1 -10z" />
    <path d="M14324 3518 l-7 -11 11 7 c12 7 16 16 8 16 -3 0 -8 -5 -12 -12z" />
    <path d="M10870 3490 c-6 -11 -8 -20 -6 -20 3 0 10 9 16 20 6 11 8 20 6 20 -3
0 -10 -9 -16 -20z" />
    <path d="M20490 3476 c0 -2 8 -10 18 -17 l17 -14 -14 18 c-13 16 -21 21 -21
13z" />
    <path d="M9555 3460 c3 -5 8 -10 11 -10 3 0 2 5 -1 10 -3 6 -8 10 -11 10 -3 0
-2 -4 1 -10z" />
    <path d="M10034 3448 l-7 -11 11 7 c7 4 12 9 12 12 0 8 -9 4 -16 -8z" />
    <path d="M14274 3448 l-7 -11 11 7 c12 7 16 16 8 16 -3 0 -8 -5 -12 -12z" />
    <path d="M19565 3450 c3 -5 8 -10 11 -10 3 0 2 5 -1 10 -3 6 -8 10 -11 10 -3
0 -2 -4 1 -10z" />
    <path d="M9585 3420 c3 -5 8 -10 11 -10 3 0 2 5 -1 10 -3 6 -8 10 -11 10 -3 0
-2 -4 1 -10z" />
    <path d="M10814 3408 l-7 -11 11 7 c12 7 16 16 8 16 -3 0 -8 -5 -12 -12z" />
    <path d="M14234 3398 l-7 -11 11 7 c12 7 16 16 8 16 -3 0 -8 -5 -12 -12z" />
    <path d="M9605 3390 c3 -5 8 -10 11 -10 3 0 2 5 -1 10 -3 6 -8 10 -11 10 -3 0
-2 -4 1 -10z" />
    <path d="M19655 3370 c10 -11 20 -20 23 -20 3 0 -3 9 -13 20 -10 11 -20 20
-23 20 -3 0 3 -9 13 -20z" />
    <path d="M20590 3386 c0 -2 8 -10 18 -17 l17 -14 -14 18 c-13 16 -21 21 -21
13z" />
    <path d="M8795 3370 c3 -5 8 -10 11 -10 3 0 2 5 -1 10 -3 6 -8 10 -11 10 -3 0
-2 -4 1 -10z" />
    <path d="M9625 3360 c3 -5 8 -10 11 -10 3 0 2 5 -1 10 -3 6 -8 10 -11 10 -3 0
-2 -4 1 -10z" />
    <path d="M10774 3358 l-7 -11 11 7 c12 7 16 16 8 16 -3 0 -8 -5 -12 -12z" />
    <path d="M9964 3348 l-7 -11 11 7 c7 4 12 9 12 12 0 8 -9 4 -16 -8z" />
    <path d="M20640 3346 c0 -2 8 -10 18 -17 l17 -14 -14 18 c-13 16 -21 21 -21
13z" />
    <path d="M14174 3328 l-7 -11 11 7 c12 7 16 16 8 16 -3 0 -8 -5 -12 -12z" />
    <path d="M9924 3288 l-7 -11 11 7 c7 4 12 9 12 12 0 8 -9 4 -16 -8z" />
    <path d="M20695 3290 c3 -5 8 -10 11 -10 3 0 2 5 -1 10 -3 6 -8 10 -11 10 -3
0 -2 -4 1 -10z" />
    <path d="M10714 3268 l-7 -11 11 7 c12 7 16 16 8 16 -3 0 -8 -5 -12 -12z" />
    <path d="M19765 3270 c3 -5 8 -10 11 -10 3 0 2 5 -1 10 -3 6 -8 10 -11 10 -3
0 -2 -4 1 -10z" />
    <path d="M14124 3258 l-7 -11 11 7 c12 7 16 16 8 16 -3 0 -8 -5 -12 -12z" />
    <path d="M17490 3260 c0 -7 3 -10 7 -7 3 4 3 10 0 14 -4 3 -7 0 -7 -7z" />
    <path d="M9884 3238 l-7 -11 11 7 c7 4 12 9 12 12 0 8 -9 4 -16 -8z" />
    <path d="M2413 3203 c4 -3 10 -3 14 0 3 4 0 7 -7 7 -7 0 -10 -3 -7 -7z" />
    <path d="M10664 3198 l-7 -11 11 7 c12 7 16 16 8 16 -3 0 -8 -5 -12 -12z" />
    <path d="M19855 3190 c10 -11 20 -20 23 -20 3 0 -3 9 -13 20 -10 11 -20 20
-23 20 -3 0 3 -9 13 -20z" />
    <path d="M23964 3188 l-7 -11 11 7 c7 4 12 9 12 12 0 8 -9 4 -16 -8z" />
    <path d="M8935 3170 c3 -5 8 -10 11 -10 3 0 2 5 -1 10 -3 6 -8 10 -11 10 -3 0
-2 -4 1 -10z" />
    <path d="M23929 3143 l-14 -18 18 14 c16 13 21 21 13 21 -2 0 -10 -8 -17 -17z" />
    <path d="M9814 3138 l-7 -11 11 7 c7 4 12 9 12 12 0 8 -9 4 -16 -8z" />
    <path d="M17430 3120 c-6 -11 -8 -20 -6 -20 3 0 10 9 16 20 6 11 8 20 6 20 -3
0 -10 -9 -16 -20z" />
    <path d="M18150 3110 c0 -7 3 -10 7 -7 3 4 3 10 0 14 -4 3 -7 0 -7 -7z" />
    <path d="M2583 3103 c4 -3 10 -3 14 0 3 4 0 7 -7 7 -7 0 -10 -3 -7 -7z" />
    <path d="M19965 3090 c3 -5 8 -10 11 -10 3 0 2 5 -1 10 -3 6 -8 10 -11 10 -3
0 -2 -4 1 -10z" />
    <path d="M10564 3058 l-7 -11 11 7 c12 7 16 16 8 16 -3 0 -8 -5 -12 -12z" />
    <path d="M9015 3050 c3 -5 8 -10 11 -10 3 0 2 5 -1 10 -3 6 -8 10 -11 10 -3 0
-2 -4 1 -10z" />
    <path d="M23824 3048 l-7 -11 11 7 c12 7 16 16 8 16 -3 0 -8 -5 -12 -12z" />
    <path d="M20055 3010 c10 -11 20 -20 23 -20 3 0 -3 9 -13 20 -10 11 -20 20
-23 20 -3 0 3 -9 13 -20z" />
    <path d="M10514 2988 l-7 -11 11 7 c12 7 16 16 8 16 -3 0 -8 -5 -12 -12z" />
    <path d="M9075 2970 c3 -5 8 -10 11 -10 3 0 2 5 -1 10 -3 6 -8 10 -11 10 -3 0
-2 -4 1 -10z" />
    <path d="M20100 2976 c0 -2 8 -10 18 -17 l17 -14 -14 18 c-13 16 -21 21 -21
13z" />
    <path d="M23583 2953 c4 -3 10 -3 14 0 3 4 0 7 -7 7 -7 0 -10 -3 -7 -7z" />
    <path d="M24574 2948 l-7 -11 11 7 c7 4 12 9 12 12 0 8 -9 4 -16 -8z" />
    <path d="M15095 2910 c3 -5 8 -10 11 -10 3 0 2 5 -1 10 -3 6 -8 10 -11 10 -3
0 -2 -4 1 -10z" />
    <path d="M20165 2910 c3 -5 8 -10 11 -10 3 0 2 5 -1 10 -3 6 -8 10 -11 10 -3
0 -2 -4 1 -10z" />
    <path d="M10454 2898 l-7 -11 11 7 c12 7 16 16 8 16 -3 0 -8 -5 -12 -12z" />
    <path d="M14574 2868 l-7 -11 11 7 c12 7 16 16 8 16 -3 0 -8 -5 -12 -12z" />
    <path d="M9155 2850 c3 -5 8 -10 11 -10 3 0 2 5 -1 10 -3 6 -8 10 -11 10 -3 0
-2 -4 1 -10z" />
    <path d="M10414 2848 l-7 -11 11 7 c12 7 16 16 8 16 -3 0 -8 -5 -12 -12z" />
    <path d="M20257 2829 c12 -12 24 -21 27 -18 2 2 -8 13 -22 23 l-27 19 22 -24z" />
    <path d="M9175 2820 c3 -5 8 -10 11 -10 3 0 2 5 -1 10 -3 6 -8 10 -11 10 -3 0
-2 -4 1 -10z" />
    <path d="M20300 2796 c0 -2 8 -10 18 -17 l17 -14 -14 18 c-13 16 -21 21 -21
13z" />
    <path d="M24444 2778 l-19 -23 23 19 c21 18 27 26 19 26 -2 0 -12 -10 -23 -22z" />
    <path d="M10364 2778 l-7 -11 11 7 c12 7 16 16 8 16 -3 0 -8 -5 -12 -12z" />
    <path d="M9215 2770 c3 -5 8 -10 11 -10 3 0 2 5 -1 10 -3 6 -8 10 -11 10 -3 0
-2 -4 1 -10z" />
    <path d="M17974 2768 l-7 -11 11 7 c12 7 16 16 8 16 -3 0 -8 -5 -12 -12z" />
    <path d="M14484 2758 l-7 -11 11 7 c12 7 16 16 8 16 -3 0 -8 -5 -12 -12z" />
    <path d="M14464 2728 l-7 -11 11 7 c12 7 16 16 8 16 -3 0 -8 -5 -12 -12z" />
    <path d="M20365 2730 c3 -5 8 -10 11 -10 3 0 2 5 -1 10 -3 6 -8 10 -11 10 -3
0 -2 -4 1 -10z" />
    <path d="M24374 2708 l-7 -11 11 7 c7 4 12 9 12 12 0 8 -9 4 -16 -8z" />
    <path d="M10304 2688 l-7 -11 11 7 c12 7 16 16 8 16 -3 0 -8 -5 -12 -12z" />
    <path d="M14434 2688 l-7 -11 11 7 c12 7 16 16 8 16 -3 0 -8 -5 -12 -12z" />
    <path d="M20445 2660 c3 -5 8 -10 11 -10 3 0 2 5 -1 10 -3 6 -8 10 -11 10 -3
0 -2 -4 1 -10z" />
    <path d="M24314 2658 l-7 -11 11 7 c7 4 12 9 12 12 0 8 -9 4 -16 -8z" />
    <path d="M9295 2650 c3 -5 8 -10 11 -10 3 0 2 5 -1 10 -3 6 -8 10 -11 10 -3 0
-2 -4 1 -10z" />
    <path d="M10269 2643 l-14 -18 18 14 c16 13 21 21 13 21 -2 0 -10 -8 -17 -17z" />
    <path d="M17854 2648 l-7 -11 11 7 c12 7 16 16 8 16 -3 0 -8 -5 -12 -12z" />
    <path d="M24274 2628 l-7 -11 11 7 c7 4 12 9 12 12 0 8 -9 4 -16 -8z" />
    <path d="M9315 2620 c3 -5 8 -10 11 -10 3 0 2 5 -1 10 -3 6 -8 10 -11 10 -3 0
-2 -4 1 -10z" />
    <path d="M17814 2618 l-7 -11 11 7 c12 7 16 16 8 16 -3 0 -8 -5 -12 -12z" />
    <path d="M20500 2616 c0 -2 8 -10 18 -17 l17 -14 -14 18 c-13 16 -21 21 -21
13z" />
    <path d="M14344 2578 l-7 -11 11 7 c12 7 16 16 8 16 -3 0 -8 -5 -12 -12z" />
    <path d="M10200 2550 c-12 -16 -19 -30 -16 -30 2 0 14 14 26 30 12 17 19 30
16 30 -2 0 -14 -13 -26 -30z" />
    <path d="M17704 2548 l-7 -11 11 7 c12 7 16 16 8 16 -3 0 -8 -5 -12 -12z" />
    <path d="M14294 2508 l-7 -11 11 7 c12 7 16 16 8 16 -3 0 -8 -5 -12 -12z" />
    <path d="M10106 2455 c-11 -8 -15 -15 -9 -15 6 0 16 7 23 15 16 19 11 19 -14
0z" />
    <path d="M14254 2458 l-7 -11 11 7 c12 7 16 16 8 16 -3 0 -8 -5 -12 -12z" />
    <path d="M9485 2430 c3 -5 8 -10 11 -10 3 0 2 5 -1 10 -3 6 -8 10 -11 10 -3 0
-2 -4 1 -10z" />
    <path d="M17423 2433 c4 -3 10 -3 14 0 3 4 0 7 -7 7 -7 0 -10 -3 -7 -7z" />
    <path d="M20705 2430 c3 -5 8 -10 11 -10 3 0 2 5 -1 10 -3 6 -8 10 -11 10 -3
0 -2 -4 1 -10z" />
    <path d="M14224 2418 l-7 -11 11 7 c12 7 16 16 8 16 -3 0 -8 -5 -12 -12z" />
    <path d="M23753 2403 c4 -3 10 -3 14 0 3 4 0 7 -7 7 -7 0 -10 -3 -7 -7z" />
    <path d="M9553 2383 c4 -3 10 -3 14 0 3 4 0 7 -7 7 -7 0 -10 -3 -7 -7z" />
    <path d="M20805 2360 c3 -5 8 -10 11 -10 3 0 2 5 -1 10 -3 6 -8 10 -11 10 -3
0 -2 -4 1 -10z" />
  </g>
  <g transform="translate(0.000000,700.000000) scale(0.100000,-0.100000)" fill="#4680c0" stroke="none">
    <path d="M18824 4498 l-19 -23 23 19 c21 18 27 26 19 26 -2 0 -12 -10 -23 -22z" />
    <path d="M19365 4480 c3 -5 8 -10 11 -10 3 0 2 5 -1 10 -3 6 -8 10 -11 10 -3
0 -2 -4 1 -10z" />
    <path d="M24055 4440 c3 -5 8 -10 11 -10 3 0 2 5 -1 10 -3 6 -8 10 -11 10 -3
0 -2 -4 1 -10z" />
    <path d="M19465 4390 c3 -5 8 -10 11 -10 3 0 2 5 -1 10 -3 6 -8 10 -11 10 -3
0 -2 -4 1 -10z" />
    <path d="M19615 4260 c3 -5 8 -10 11 -10 3 0 2 5 -1 10 -3 6 -8 10 -11 10 -3
0 -2 -4 1 -10z" />
    <path d="M15244 4218 l-19 -23 23 19 c21 18 27 26 19 26 -2 0 -12 -10 -23 -22z" />
    <path d="M19665 4210 c3 -5 8 -10 11 -10 3 0 2 5 -1 10 -3 6 -8 10 -11 10 -3
0 -2 -4 1 -10z" />
    <path d="M24430 4195 c13 -14 26 -25 28 -25 3 0 -5 11 -18 25 -13 14 -26 25
-28 25 -3 0 5 -11 18 -25z" />
    <path d="M19815 4080 c3 -5 8 -10 11 -10 3 0 2 5 -1 10 -3 6 -8 10 -11 10 -3
0 -2 -4 1 -10z" />
    <path d="M19865 4030 c3 -5 8 -10 11 -10 3 0 2 5 -1 10 -3 6 -8 10 -11 10 -3
0 -2 -4 1 -10z" />
    <path d="M20015 3900 c3 -5 8 -10 11 -10 3 0 2 5 -1 10 -3 6 -8 10 -11 10 -3
0 -2 -4 1 -10z" />
    <path d="M15774 3858 l-7 -11 11 7 c12 7 16 16 8 16 -3 0 -8 -5 -12 -12z" />
    <path d="M20065 3850 c3 -5 8 -10 11 -10 3 0 2 5 -1 10 -3 6 -8 10 -11 10 -3
0 -2 -4 1 -10z" />
    <path d="M23880 3827 c0 -2 15 -16 33 -33 l32 -29 -29 33 c-28 30 -36 37 -36
29z" />
    <path d="M20115 3810 c3 -5 8 -10 11 -10 3 0 2 5 -1 10 -3 6 -8 10 -11 10 -3
0 -2 -4 1 -10z" />
    <path d="M20215 3720 c3 -5 8 -10 11 -10 3 0 2 5 -1 10 -3 6 -8 10 -11 10 -3
0 -2 -4 1 -10z" />
    <path d="M20265 3670 c3 -5 8 -10 11 -10 3 0 2 5 -1 10 -3 6 -8 10 -11 10 -3
0 -2 -4 1 -10z" />
    <path d="M20315 3630 c3 -5 8 -10 11 -10 3 0 2 5 -1 10 -3 6 -8 10 -11 10 -3
0 -2 -4 1 -10z" />
    <path d="M19375 3620 c3 -5 8 -10 11 -10 3 0 2 5 -1 10 -3 6 -8 10 -11 10 -3
0 -2 -4 1 -10z" />
    <path d="M19435 3570 c3 -5 8 -10 11 -10 3 0 2 5 -1 10 -3 6 -8 10 -11 10 -3
0 -2 -4 1 -10z" />
    <path d="M20415 3540 c3 -5 8 -10 11 -10 3 0 2 5 -1 10 -3 6 -8 10 -11 10 -3
0 -2 -4 1 -10z" />
    <path d="M20465 3500 c3 -5 8 -10 11 -10 3 0 2 5 -1 10 -3 6 -8 10 -11 10 -3
0 -2 -4 1 -10z" />
    <path d="M1925 3490 c3 -5 8 -10 11 -10 3 0 2 5 -1 10 -3 6 -8 10 -11 10 -3 0
-2 -4 1 -10z" />
    <path d="M20515 3450 c3 -5 8 -10 11 -10 3 0 2 5 -1 10 -3 6 -8 10 -11 10 -3
0 -2 -4 1 -10z" />
    <path d="M19635 3390 c3 -5 8 -10 11 -10 3 0 2 5 -1 10 -3 6 -8 10 -11 10 -3
0 -2 -4 1 -10z" />
    <path d="M20615 3360 c3 -5 8 -10 11 -10 3 0 2 5 -1 10 -3 6 -8 10 -11 10 -3
0 -2 -4 1 -10z" />
    <path d="M20665 3320 c3 -5 8 -10 11 -10 3 0 2 5 -1 10 -3 6 -8 10 -11 10 -3
0 -2 -4 1 -10z" />
    <path d="M19835 3210 c3 -5 8 -10 11 -10 3 0 2 5 -1 10 -3 6 -8 10 -11 10 -3
0 -2 -4 1 -10z" />
    <path d="M23904 3108 l-7 -11 11 7 c12 7 16 16 8 16 -3 0 -8 -5 -12 -12z" />
    <path d="M17384 3068 l-19 -23 23 19 c21 18 27 26 19 26 -2 0 -12 -10 -23 -22z" />
    <path d="M20035 3030 c3 -5 8 -10 11 -10 3 0 2 5 -1 10 -3 6 -8 10 -11 10 -3
0 -2 -4 1 -10z" />
    <path d="M24564 2938 l-7 -11 11 7 c12 7 16 16 8 16 -3 0 -8 -5 -12 -12z" />
    <path d="M20235 2850 c3 -5 8 -10 11 -10 3 0 2 5 -1 10 -3 6 -8 10 -11 10 -3
0 -2 -4 1 -10z" />
    <path d="M20280 2816 c0 -2 8 -10 18 -17 l17 -14 -14 18 c-13 16 -21 21 -21
13z" />
    <path d="M24419 2753 l-14 -18 18 14 c16 13 21 21 13 21 -2 0 -10 -8 -17 -17z" />
    <path d="M15225 2730 c3 -5 8 -10 11 -10 3 0 2 5 -1 10 -3 6 -8 10 -11 10 -3
0 -2 -4 1 -10z" />
    <path d="M15265 2690 c3 -5 8 -10 11 -10 3 0 2 5 -1 10 -3 6 -8 10 -11 10 -3
0 -2 -4 1 -10z" />
    <path d="M20435 2670 c3 -5 8 -10 11 -10 3 0 2 5 -1 10 -3 6 -8 10 -11 10 -3
0 -2 -4 1 -10z" />
    <path d="M17864 2658 l-7 -11 11 7 c12 7 16 16 8 16 -3 0 -8 -5 -12 -12z" />
    <path d="M20480 2636 c0 -2 8 -10 18 -17 l17 -14 -14 18 c-13 16 -21 21 -21
13z" />
    <path d="M10204 2558 l-7 -11 11 7 c7 4 12 9 12 12 0 8 -9 4 -16 -8z" />
    <path d="M10149 2493 l-34 -38 38 34 c34 33 42 41 34 41 -2 0 -19 -17 -38 -37z" />
    <path d="M20680 2456 c0 -2 8 -10 18 -17 l17 -14 -14 18 c-13 16 -21 21 -21
13z" />
    <path d="M9475 2440 c3 -5 8 -10 11 -10 3 0 2 5 -1 10 -3 6 -8 10 -11 10 -3 0
-2 -4 1 -10z" />
  </g>
  <g transform="translate(0.000000,700.000000) scale(0.100000,-0.100000)" fill="#fbe3c5" stroke="none">
    <path d="M1964 2358 l-7 -11 11 7 c12 7 16 16 8 16 -3 0 -8 -5 -12 -12z" />
    <path d="M1693 2203 c4 -3 10 -3 14 0 3 4 0 7 -7 7 -7 0 -10 -3 -7 -7z" />
    <path d="M1634 2168 l-7 -11 11 7 c12 7 16 16 8 16 -3 0 -8 -5 -12 -12z" />
    <path d="M20285 1920 c3 -5 8 -10 11 -10 3 0 2 5 -1 10 -3 6 -8 10 -11 10 -3
0 -2 -4 1 -10z" />
    <path d="M8890 1916 c0 -2 8 -10 18 -17 l17 -14 -14 18 c-13 16 -21 21 -21 13z" />
    <path d="M16184 1908 l-7 -11 11 7 c7 4 12 9 12 12 0 8 -9 4 -16 -8z" />
    <path d="M16460 1916 c0 -2 8 -10 18 -17 l17 -14 -14 18 c-13 16 -21 21 -21
13z" />
    <path d="M20095 1900 c10 -11 20 -20 23 -20 3 0 -3 9 -13 20 -10 11 -20 20
-23 20 -3 0 3 -9 13 -20z" />
    <path d="M10765 1880 c3 -5 8 -10 11 -10 3 0 2 5 -1 10 -3 6 -8 10 -11 10 -3
0 -2 -4 1 -10z" />
    <path d="M20315 1880 c3 -5 8 -10 11 -10 3 0 2 5 -1 10 -3 6 -8 10 -11 10 -3
0 -2 -4 1 -10z" />
    <path d="M8590 1870 c0 -7 3 -10 7 -7 3 4 3 10 0 14 -4 3 -7 0 -7 -7z" />
    <path d="M22885 1870 c3 -5 8 -10 11 -10 3 0 2 5 -1 10 -3 6 -8 10 -11 10 -3
0 -2 -4 1 -10z" />
    <path d="M7665 1860 c3 -5 8 -10 11 -10 3 0 2 5 -1 10 -3 6 -8 10 -11 10 -3 0
-2 -4 1 -10z" />
    <path d="M8935 1860 c3 -5 8 -10 11 -10 3 0 2 5 -1 10 -3 6 -8 10 -11 10 -3 0
-2 -4 1 -10z" />
    <path d="M9914 1858 l-7 -11 11 7 c12 7 16 16 8 16 -3 0 -8 -5 -12 -12z" />
    <path d="M15815 1860 c3 -5 8 -10 11 -10 3 0 2 5 -1 10 -3 6 -8 10 -11 10 -3
0 -2 -4 1 -10z" />
    <path d="M24660 1866 c0 -2 8 -10 18 -17 l17 -14 -14 18 c-13 16 -21 21 -21
13z" />
    <path d="M16525 1840 c10 -11 20 -20 23 -20 3 0 -3 9 -13 20 -10 11 -20 20
-23 20 -3 0 3 -9 13 -20z" />
    <path d="M20135 1850 c3 -5 8 -10 11 -10 3 0 2 5 -1 10 -3 6 -8 10 -11 10 -3
0 -2 -4 1 -10z" />
    <path d="M21044 1848 l-7 -11 11 7 c7 4 12 9 12 12 0 8 -9 4 -16 -8z" />
    <path d="M22205 1850 c3 -5 8 -10 11 -10 3 0 2 5 -1 10 -3 6 -8 10 -11 10 -3
0 -2 -4 1 -10z" />
    <path d="M20345 1840 c3 -5 8 -10 11 -10 3 0 2 5 -1 10 -3 6 -8 10 -11 10 -3
0 -2 -4 1 -10z" />
    <path d="M7695 1820 c3 -5 8 -10 11 -10 3 0 2 5 -1 10 -3 6 -8 10 -11 10 -3 0
-2 -4 1 -10z" />
    <path d="M8965 1820 c3 -5 8 -10 11 -10 3 0 2 5 -1 10 -3 6 -8 10 -11 10 -3 0
-2 -4 1 -10z" />
    <path d="M20165 1810 c3 -5 8 -10 11 -10 3 0 2 5 -1 10 -3 6 -8 10 -11 10 -3
0 -2 -4 1 -10z" />
    <path d="M21014 1808 l-7 -11 11 7 c7 4 12 9 12 12 0 8 -9 4 -16 -8z" />
    <path d="M20380 1790 c6 -11 13 -20 16 -20 2 0 0 9 -6 20 -6 11 -13 20 -16 20
-2 0 0 -9 6 -20z" />
    <path d="M11100 1790 c0 -7 3 -10 7 -7 3 4 3 10 0 14 -4 3 -7 0 -7 -7z" />
    <path d="M20185 1780 c3 -5 8 -10 11 -10 3 0 2 5 -1 10 -3 6 -8 10 -11 10 -3
0 -2 -4 1 -10z" />
    <path d="M20984 1768 l-19 -23 23 19 c21 18 27 26 19 26 -2 0 -12 -10 -23 -22z" />
    <path d="M20784 1768 l-7 -11 11 7 c7 4 12 9 12 12 0 8 -9 4 -16 -8z" />
    <path d="M15133 1763 c4 -3 10 -3 14 0 3 4 0 7 -7 7 -7 0 -10 -3 -7 -7z" />
    <path d="M16585 1760 c3 -5 8 -10 11 -10 3 0 2 5 -1 10 -3 6 -8 10 -11 10 -3
0 -2 -4 1 -10z" />
    <path d="M21513 1763 c4 -3 10 -3 14 0 3 4 0 7 -7 7 -7 0 -10 -3 -7 -7z" />
    <path d="M7745 1750 c3 -5 8 -10 11 -10 3 0 2 5 -1 10 -3 6 -8 10 -11 10 -3 0
-2 -4 1 -10z" />
    <path d="M9025 1740 c10 -11 20 -20 23 -20 3 0 -3 9 -13 20 -10 11 -20 20 -23
20 -3 0 3 -9 13 -20z" />
    <path d="M15665 1740 c10 -11 20 -20 23 -20 3 0 -3 9 -13 20 -10 11 -20 20
-23 20 -3 0 3 -9 13 -20z" />
    <path d="M18555 1750 c3 -5 8 -10 11 -10 3 0 2 5 -1 10 -3 6 -8 10 -11 10 -3
0 -2 -4 1 -10z" />
    <path d="M22755 1750 c3 -5 8 -10 11 -10 3 0 2 5 -1 10 -3 6 -8 10 -11 10 -3
0 -2 -4 1 -10z" />
    <path d="M894 1738 l-7 -11 11 7 c12 7 16 16 8 16 -3 0 -8 -5 -12 -12z" />
    <path d="M8805 1740 c3 -5 8 -10 11 -10 3 0 2 5 -1 10 -3 6 -8 10 -11 10 -3 0
-2 -4 1 -10z" />
    <path d="M10645 1740 c3 -5 8 -10 11 -10 3 0 2 5 -1 10 -3 6 -8 10 -11 10 -3
0 -2 -4 1 -10z" />
    <path d="M19219 1733 l-14 -18 18 14 c16 13 21 21 13 21 -2 0 -10 -8 -17 -17z" />
    <path d="M20215 1740 c3 -5 8 -10 11 -10 3 0 2 5 -1 10 -3 6 -8 10 -11 10 -3
0 -2 -4 1 -10z" />
    <path d="M20415 1740 c3 -5 8 -10 11 -10 3 0 2 5 -1 10 -3 6 -8 10 -11 10 -3
0 -2 -4 1 -10z" />
    <path d="M22985 1740 c3 -5 8 -10 11 -10 3 0 2 5 -1 10 -3 6 -8 10 -11 10 -3
0 -2 -4 1 -10z" />
    <path d="M20754 1728 l-7 -11 11 7 c7 4 12 9 12 12 0 8 -9 4 -16 -8z" />
    <path d="M16615 1720 c3 -5 8 -10 11 -10 3 0 2 5 -1 10 -3 6 -8 10 -11 10 -3
0 -2 -4 1 -10z" />
    <path d="M7565 1700 c3 -5 8 -10 11 -10 3 0 2 5 -1 10 -3 6 -8 10 -11 10 -3 0
-2 -4 1 -10z" />
    <path d="M8845 1690 c10 -11 20 -20 23 -20 3 0 -3 9 -13 20 -10 11 -20 20 -23
20 -3 0 3 -9 13 -20z" />
    <path d="M20245 1700 c3 -5 8 -10 11 -10 3 0 2 5 -1 10 -3 6 -8 10 -11 10 -3
0 -2 -4 1 -10z" />
    <path d="M20455 1690 c10 -11 20 -20 23 -20 3 0 -3 9 -13 20 -10 11 -20 20
-23 20 -3 0 3 -9 13 -20z" />
    <path d="M7795 1690 c3 -5 8 -10 11 -10 3 0 2 5 -1 10 -3 6 -8 10 -11 10 -3 0
-2 -4 1 -10z" />
    <path d="M20724 1688 l-7 -11 11 7 c7 4 12 9 12 12 0 8 -9 4 -16 -8z" />
    <path d="M22805 1690 c3 -5 8 -10 11 -10 3 0 2 5 -1 10 -3 6 -8 10 -11 10 -3
0 -2 -4 1 -10z" />
    <path d="M16645 1680 c3 -5 8 -10 11 -10 3 0 2 5 -1 10 -3 6 -8 10 -11 10 -3
0 -2 -4 1 -10z" />
    <path d="M16435 1670 c3 -5 8 -10 11 -10 3 0 2 5 -1 10 -3 6 -8 10 -11 10 -3
0 -2 -4 1 -10z" />
    <path d="M20904 1668 l-7 -11 11 7 c7 4 12 9 12 12 0 8 -9 4 -16 -8z" />
    <path d="M7825 1650 c3 -5 8 -10 11 -10 3 0 2 5 -1 10 -3 6 -8 10 -11 10 -3 0
-2 -4 1 -10z" />
    <path d="M20694 1648 l-7 -11 11 7 c7 4 12 9 12 12 0 8 -9 4 -16 -8z" />
    <path d="M23055 1650 c3 -5 8 -10 11 -10 3 0 2 5 -1 10 -3 6 -8 10 -11 10 -3
0 -2 -4 1 -10z" />
    <path d="M7615 1640 c3 -5 8 -10 11 -10 3 0 2 5 -1 10 -3 6 -8 10 -11 10 -3 0
-2 -4 1 -10z" />
    <path d="M9105 1640 c3 -5 8 -10 11 -10 3 0 2 5 -1 10 -3 6 -8 10 -11 10 -3 0
-2 -4 1 -10z" />
    <path d="M16675 1640 c3 -5 8 -10 11 -10 3 0 2 5 -1 10 -3 6 -8 10 -11 10 -3
0 -2 -4 1 -10z" />
    <path d="M16465 1630 c3 -5 8 -10 11 -10 3 0 2 5 -1 10 -3 6 -8 10 -11 10 -3
0 -2 -4 1 -10z" />
    <path d="M20874 1628 l-7 -11 11 7 c7 4 12 9 12 12 0 8 -9 4 -16 -8z" />
    <path d="M23085 1610 c3 -5 8 -10 11 -10 3 0 2 5 -1 10 -3 6 -8 10 -11 10 -3
0 -2 -4 1 -10z" />
    <path d="M12730 1600 c0 -7 3 -10 7 -7 3 4 3 10 0 14 -4 3 -7 0 -7 -7z" />
    <path d="M16715 1590 c3 -5 8 -10 11 -10 3 0 2 5 -1 10 -3 6 -8 10 -11 10 -3
0 -2 -4 1 -10z" />
    <path d="M20654 1588 l-7 -11 11 7 c7 4 12 9 12 12 0 8 -9 4 -16 -8z" />
    <path d="M7875 1580 c3 -5 8 -10 11 -10 3 0 2 5 -1 10 -3 6 -8 10 -11 10 -3 0
-2 -4 1 -10z" />
    <path d="M20535 1580 c3 -5 8 -10 11 -10 3 0 2 5 -1 10 -3 6 -8 10 -11 10 -3
0 -2 -4 1 -10z" />
    <path d="M7665 1570 c3 -5 8 -10 11 -10 3 0 2 5 -1 10 -3 6 -8 10 -11 10 -3 0
-2 -4 1 -10z" />
    <path d="M8935 1570 c3 -5 8 -10 11 -10 3 0 2 5 -1 10 -3 6 -8 10 -11 10 -3 0
-2 -4 1 -10z" />
    <path d="M18699 1563 l-14 -18 18 14 c16 13 21 21 13 21 -2 0 -10 -8 -17 -17z" />
    <path d="M20345 1570 c3 -5 8 -10 11 -10 3 0 2 5 -1 10 -3 6 -8 10 -11 10 -3
0 -2 -4 1 -10z" />
    <path d="M16525 1550 c10 -11 20 -20 23 -20 3 0 -3 9 -13 20 -10 11 -20 20
-23 20 -3 0 3 -9 13 -20z" />
    <path d="M20824 1558 l-7 -11 11 7 c7 4 12 9 12 12 0 8 -9 4 -16 -8z" />
    <path d="M16745 1550 c3 -5 8 -10 11 -10 3 0 2 5 -1 10 -3 6 -8 10 -11 10 -3
0 -2 -4 1 -10z" />
    <path d="M7905 1540 c3 -5 8 -10 11 -10 3 0 2 5 -1 10 -3 6 -8 10 -11 10 -3 0
-2 -4 1 -10z" />
    <path d="M20565 1540 c3 -5 8 -10 11 -10 3 0 2 5 -1 10 -3 6 -8 10 -11 10 -3
0 -2 -4 1 -10z" />
    <path d="M7695 1530 c3 -5 8 -10 11 -10 3 0 2 5 -1 10 -3 6 -8 10 -11 10 -3 0
-2 -4 1 -10z" />
    <path d="M9195 1520 c10 -11 20 -20 23 -20 3 0 -3 9 -13 20 -10 11 -20 20 -23
20 -3 0 3 -9 13 -20z" />
    <path d="M20604 1528 l-7 -11 11 7 c7 4 12 9 12 12 0 8 -9 4 -16 -8z" />
    <path d="M22925 1530 c3 -5 8 -10 11 -10 3 0 2 5 -1 10 -3 6 -8 10 -11 10 -3
0 -2 -4 1 -10z" />
    <path d="M23155 1520 c3 -5 8 -10 11 -10 3 0 2 5 -1 10 -3 6 -8 10 -11 10 -3
0 -2 -4 1 -10z" />
    <path d="M16565 1500 c3 -5 8 -10 11 -10 3 0 2 5 -1 10 -3 6 -8 10 -11 10 -3
0 -2 -4 1 -10z" />
    <path d="M11694 1488 l-7 -11 11 7 c12 7 16 16 8 16 -3 0 -8 -5 -12 -12z" />
    <path d="M20764 1488 l-7 -11 11 7 c7 4 12 9 12 12 0 8 -9 4 -16 -8z" />
    <path d="M9005 1480 c3 -5 8 -10 11 -10 3 0 2 5 -1 10 -3 6 -8 10 -11 10 -3 0
-2 -4 1 -10z" />
    <path d="M23185 1480 c3 -5 8 -10 11 -10 3 0 2 5 -1 10 -3 6 -8 10 -11 10 -3
0 -2 -4 1 -10z" />
    <path d="M9235 1470 c3 -5 8 -10 11 -10 3 0 2 5 -1 10 -3 6 -8 10 -11 10 -3 0
-2 -4 1 -10z" />
    <path d="M22975 1470 c3 -5 8 -10 11 -10 3 0 2 5 -1 10 -3 6 -8 10 -11 10 -3
0 -2 -4 1 -10z" />
    <path d="M20734 1448 l-7 -11 11 7 c12 7 16 16 8 16 -3 0 -8 -5 -12 -12z" />
    <path d="M20455 1430 c10 -11 20 -20 23 -20 3 0 -3 9 -13 20 -10 11 -20 20
-23 20 -3 0 3 -9 13 -20z" />
    <path d="M23215 1440 c3 -5 8 -10 11 -10 3 0 2 5 -1 10 -3 6 -8 10 -11 10 -3
0 -2 -4 1 -10z" />
    <path d="M7995 1430 c3 -5 8 -10 11 -10 3 0 2 5 -1 10 -3 6 -8 10 -11 10 -3 0
-2 -4 1 -10z" />
    <path d="M9265 1430 c3 -5 8 -10 11 -10 3 0 2 5 -1 10 -3 6 -8 10 -11 10 -3 0
-2 -4 1 -10z" />
    <path d="M23005 1430 c3 -5 8 -10 11 -10 3 0 2 5 -1 10 -3 6 -8 10 -11 10 -3
0 -2 -4 1 -10z" />
    <path d="M7790 1410 c6 -11 13 -20 16 -20 2 0 0 9 -6 20 -6 11 -13 20 -16 20
-2 0 0 -9 6 -20z" />
    <path d="M9055 1420 c3 -5 8 -10 11 -10 3 0 2 5 -1 10 -3 6 -8 10 -11 10 -3 0
-2 -4 1 -10z" />
    <path d="M16846 1417 c3 -10 9 -15 12 -12 3 3 0 11 -7 18 l-12 12 7 -18z" />
    <path d="M11850 1410 c0 -7 3 -10 7 -7 3 4 3 10 0 14 -4 3 -7 0 -7 -7z" />
    <path d="M9285 1400 c3 -5 8 -10 11 -10 3 0 2 5 -1 10 -3 6 -8 10 -11 10 -3 0
-2 -4 1 -10z" />
    <path d="M23025 1400 c3 -5 8 -10 11 -10 3 0 2 5 -1 10 -3 6 -8 10 -11 10 -3
0 -2 -4 1 -10z" />
    <path d="M9075 1390 c3 -5 8 -10 11 -10 3 0 2 5 -1 10 -3 6 -8 10 -11 10 -3 0
-2 -4 1 -10z" />
    <path d="M20684 1378 l-7 -11 11 7 c7 4 12 9 12 12 0 8 -9 4 -16 -8z" />
    <path d="M1513 1373 c4 -3 10 -3 14 0 3 4 0 7 -7 7 -7 0 -10 -3 -7 -7z" />
    <path d="M23265 1370 c3 -5 8 -10 11 -10 3 0 2 5 -1 10 -3 6 -8 10 -11 10 -3
0 -2 -4 1 -10z" />
    <path d="M9315 1360 c3 -5 8 -10 11 -10 3 0 2 5 -1 10 -3 6 -8 10 -11 10 -3 0
-2 -4 1 -10z" />
    <path d="M23055 1360 c3 -5 8 -10 11 -10 3 0 2 5 -1 10 -3 6 -8 10 -11 10 -3
0 -2 -4 1 -10z" />
    <path d="M9105 1350 c3 -5 8 -10 11 -10 3 0 2 5 -1 10 -3 6 -8 10 -11 10 -3 0
-2 -4 1 -10z" />
    <path d="M16685 1340 c3 -5 8 -10 11 -10 3 0 2 5 -1 10 -3 6 -8 10 -11 10 -3
0 -2 -4 1 -10z" />
    <path d="M15669 1323 l-14 -18 18 14 c9 7 17 15 17 17 0 8 -8 3 -21 -13z" />
    <path d="M16915 1330 c3 -5 8 -10 11 -10 3 0 2 5 -1 10 -3 6 -8 10 -11 10 -3
0 -2 -4 1 -10z" />
    <path d="M19210 1336 c0 -2 8 -10 18 -17 l17 -14 -14 18 c-13 16 -21 21 -21
13z" />
    <path d="M23305 1320 c10 -11 20 -20 23 -20 3 0 -3 9 -13 20 -10 11 -20 20
-23 20 -3 0 3 -9 13 -20z" />
    <path d="M8075 1320 c3 -5 8 -10 11 -10 3 0 2 5 -1 10 -3 6 -8 10 -11 10 -3 0
-2 -4 1 -10z" />
    <path d="M9345 1320 c3 -5 8 -10 11 -10 3 0 2 5 -1 10 -3 6 -8 10 -11 10 -3 0
-2 -4 1 -10z" />
    <path d="M23085 1320 c3 -5 8 -10 11 -10 3 0 2 5 -1 10 -3 6 -8 10 -11 10 -3
0 -2 -4 1 -10z" />
    <path d="M7865 1310 c3 -5 8 -10 11 -10 3 0 2 5 -1 10 -3 6 -8 10 -11 10 -3 0
-2 -4 1 -10z" />
    <path d="M9135 1310 c3 -5 8 -10 11 -10 3 0 2 5 -1 10 -3 6 -8 10 -11 10 -3 0
-2 -4 1 -10z" />
    <path d="M22034 1308 l-7 -11 11 7 c7 4 12 9 12 12 0 8 -9 4 -16 -8z" />
    <path d="M19273 1293 c4 -3 10 -3 14 0 3 4 0 7 -7 7 -7 0 -10 -3 -7 -7z" />
    <path d="M16735 1280 c3 -5 8 -10 11 -10 3 0 2 5 -1 10 -3 6 -8 10 -11 10 -3
0 -2 -4 1 -10z" />
    <path d="M7895 1270 c3 -5 8 -10 11 -10 3 0 2 5 -1 10 -3 6 -8 10 -11 10 -3 0
-2 -4 1 -10z" />
    <path d="M23130 1266 c0 -2 8 -10 18 -17 l17 -14 -14 18 c-13 16 -21 21 -21
13z" />
    <path d="M16765 1240 c3 -5 8 -10 11 -10 3 0 2 5 -1 10 -3 6 -8 10 -11 10 -3
0 -2 -4 1 -10z" />
    <path d="M7925 1230 c3 -5 8 -10 11 -10 3 0 2 5 -1 10 -3 6 -8 10 -11 10 -3 0
-2 -4 1 -10z" />
    <path d="M15834 1228 l-7 -11 11 7 c12 7 16 16 8 16 -3 0 -8 -5 -12 -12z" />
    <path d="M1785 1220 c3 -5 8 -10 11 -10 3 0 2 5 -1 10 -3 6 -8 10 -11 10 -3 0
-2 -4 1 -10z" />
    <path d="M12120 1220 c0 -7 3 -10 7 -7 3 4 3 10 0 14 -4 3 -7 0 -7 -7z" />
    <path d="M18730 1220 c0 -7 3 -10 7 -7 3 4 3 10 0 14 -4 3 -7 0 -7 -7z" />
    <path d="M16785 1210 c3 -5 8 -10 11 -10 3 0 2 5 -1 10 -3 6 -8 10 -11 10 -3
0 -2 -4 1 -10z" />
    <path d="M22204 1208 l-7 -11 11 7 c12 7 16 16 8 16 -3 0 -8 -5 -12 -12z" />
    <path d="M24669 1203 l-14 -18 18 14 c16 13 21 21 13 21 -2 0 -10 -8 -17 -17z" />
    <path d="M15814 1198 l-7 -11 11 7 c12 7 16 16 8 16 -3 0 -8 -5 -12 -12z" />
    <path d="M18714 1188 l-7 -11 11 7 c12 7 16 16 8 16 -3 0 -8 -5 -12 -12z" />
    <path d="M7965 1180 c3 -5 8 -10 11 -10 3 0 2 5 -1 10 -3 6 -8 10 -11 10 -3 0
-2 -4 1 -10z" />
    <path d="M22174 1178 l-7 -11 11 7 c7 4 12 9 12 12 0 8 -9 4 -16 -8z" />
    <path d="M9245 1170 c3 -5 8 -10 11 -10 3 0 2 5 -1 10 -3 6 -8 10 -11 10 -3 0
-2 -4 1 -10z" />
    <path d="M16825 1160 c10 -11 20 -20 23 -20 3 0 -3 9 -13 20 -10 11 -20 20
-23 20 -3 0 3 -9 13 -20z" />
    <path d="M18684 1158 l-7 -11 11 7 c12 7 16 16 8 16 -3 0 -8 -5 -12 -12z" />
    <path d="M3483 883 c4 -3 10 -3 14 0 3 4 0 7 -7 7 -7 0 -10 -3 -7 -7z" />
  </g>
  <g transform="translate(0.000000,700.000000) scale(0.100000,-0.100000)" fill="#f8af55" stroke="none">
    <path d="M12775 1870 c3 -5 8 -10 11 -10 3 0 2 5 -1 10 -3 6 -8 10 -11 10 -3
0 -2 -4 1 -10z" />
    <path d="M22195 1860 c3 -5 8 -10 11 -10 3 0 2 5 -1 10 -3 6 -8 10 -11 10 -3
0 -2 -4 1 -10z" />
    <path d="M19864 1778 l-7 -11 11 7 c12 7 16 16 8 16 -3 0 -8 -5 -12 -12z" />
    <path d="M21464 1738 l-7 -11 11 7 c7 4 12 9 12 12 0 8 -9 4 -16 -8z" />
    <path d="M12594 1728 l-7 -11 11 7 c7 4 12 9 12 12 0 8 -9 4 -16 -8z" />
    <path d="M11345 1700 c3 -5 8 -10 11 -10 3 0 2 5 -1 10 -3 6 -8 10 -11 10 -3
0 -2 -4 1 -10z" />
    <path d="M12775 1520 c3 -5 8 -10 11 -10 3 0 2 5 -1 10 -3 6 -8 10 -11 10 -3
0 -2 -4 1 -10z" />
    <path d="M18555 1450 c3 -5 8 -10 11 -10 3 0 2 5 -1 10 -3 6 -8 10 -11 10 -3
0 -2 -4 1 -10z" />
    <path d="M12234 1428 l-7 -11 11 7 c7 4 12 9 12 12 0 8 -9 4 -16 -8z" />
    <path d="M19205 1340 c3 -5 8 -10 11 -10 3 0 2 5 -1 10 -3 6 -8 10 -11 10 -3
0 -2 -4 1 -10z" />
    <path d="M10644 1318 l-7 -11 11 7 c7 4 12 9 12 12 0 8 -9 4 -16 -8z" />
    <path d="M13125 1240 c3 -5 8 -10 11 -10 3 0 2 5 -1 10 -3 6 -8 10 -11 10 -3
0 -2 -4 1 -10z" />
    <path d="M22189 1193 l-14 -18 18 14 c16 13 21 21 13 21 -2 0 -10 -8 -17 -17z" />
    <path d="M18699 1173 l-14 -18 18 14 c16 13 21 21 13 21 -2 0 -10 -8 -17 -17z" />
    <path d="M7975 1170 c3 -5 8 -10 11 -10 3 0 2 5 -1 10 -3 6 -8 10 -11 10 -3 0
-2 -4 1 -10z" />
    <path d="M9255 1160 c3 -5 8 -10 11 -10 3 0 2 5 -1 10 -3 6 -8 10 -11 10 -3 0
-2 -4 1 -10z" />
    <path d="M3754 1038 l-7 -11 11 7 c12 7 16 16 8 16 -3 0 -8 -5 -12 -12z" />
    <path d="M3424 848 l-7 -11 11 7 c12 7 16 16 8 16 -3 0 -8 -5 -12 -12z" />
  </g>
  <g transform="translate(0.000000,700.000000) scale(0.100000,-0.100000)" fill="#64616f" stroke="none" />
  <g transform="translate(0.000000,700.000000) scale(0.100000,-0.100000)" fill="#0a4094" stroke="none" />
</svg>